<?xml version="1.0" encoding="UTF-8"?>
<svg xmlns="http://www.w3.org/2000/svg" xmlns:xlink="http://www.w3.org/1999/xlink" width="61pt" height="61pt" viewBox="0 0 256 256" version="1.1">

<path style="fill:#151515; stroke:#151515;" d="M47 0C47.9357 1.94856 48.3924 2.5502 50 4L50 0L47 0z"/>
<path style="fill:#090909; stroke:#090909;" d="M55 1L55 2L61 1C58.6774 0.0785065 57.4195 0.312744 55 1z"/>
<path style="fill:#151515; stroke:#151515;" d="M119 0C119.936 1.94856 120.392 2.5502 122 4L122 0L119 0z"/>
<path style="fill:#090909; stroke:#090909;" d="M127 1L127 2L133 1C130.677 0.0785065 129.419 0.312744 127 1z"/>
<path style="fill:#151515; stroke:#151515;" d="M191 0C191.936 1.94858 192.392 2.55019 194 4L194 0L191 0z"/>
<path style="fill:#1f1f1f; stroke:#1f1f1f;" d="M26 3C24.478 5.60791 23.1606 8.21272 22 11C24.0955 12.043 25.6987 12.6028 28 13C27.9694 9.35356 27.8997 6.17134 26 3M98 3C96.478 5.60793 95.1606 8.21271 94 11C96.0955 12.043 97.6987 12.6028 100 13C99.9694 9.35361 99.8997 6.17134 98 3M170 3C168.414 5.61797 167.045 8.12628 166 11C168.095 12.0429 169.699 12.6028 172 13C171.926 9.42508 171.692 6.18172 170 3M242 3C240.414 5.61797 239.045 8.1263 238 11C240.095 12.0429 241.699 12.6028 244 13C243.926 9.42508 243.692 6.18172 242 3z"/>
<path style="fill:#ffffff; stroke:#ffffff;" d="M25 7C24.7114 9.71925 24.8248 10.3623 27 12C26.6137 9.85741 26.2549 8.75046 25 7M97 7C96.7114 9.71919 96.8248 10.3623 99 12C98.6137 9.85735 98.2549 8.7505 97 7M169 7C168.711 9.71918 168.825 10.3623 171 12C170.614 9.85732 170.255 8.7505 169 7M241 7C240.711 9.71918 240.825 10.3623 243 12C242.614 9.8573 242.255 8.75052 241 7z"/>
<path style="fill:#171717; stroke:#171717;" d="M160 17C159.11 18.7448 158.547 20.1249 158 22L163 22L163 21C161.42 20.3164 161.223 20.1952 160 19L162 20C161.316 18.42 161.195 18.2228 160 17M232 17C231.11 18.7448 230.547 20.1249 230 22L235 22L235 21C233.42 20.3164 233.223 20.1952 232 19L234 20C233.316 18.42 233.195 18.2228 232 17z"/>
<path style="fill:#090909; stroke:#090909;" d="M17 26C19.5507 25.6216 21.627 25.0123 24 24C20.7596 21.2744 18.9632 22.5864 17 26M89 26C91.5507 25.6215 93.627 25.0123 96 24C92.7596 21.2744 90.9632 22.5864 89 26z"/>
<path style="fill:#252525; stroke:#252525;" d="M161 26C163.551 25.6216 165.627 25.0123 168 24C164.76 21.2744 162.963 22.5864 161 26M233 26C235.551 25.6216 237.627 25.0123 240 24C236.76 21.2745 234.963 22.5864 233 26z"/>
<path style="fill:#313131; stroke:#313131;" d="M10 41L4 45C5.47977 48.166 7.16843 49.9512 10 52C10.7 48.2294 11.512 44.6115 10 41M14 41L12 47L16 47L15 50C17.5507 49.6216 19.627 49.0123 22 48L22 47C19.8958 46.1236 19.2477 45.9545 17 46C16.1808 43.894 15.5125 42.6527 14 41M82 41L81 49C79.7741 47.0208 79.4108 46.251 79 44C77.2032 44 77.4785 44.0143 76 45C77.4798 48.1661 79.1684 49.9512 82 52C82.4777 48.2201 83.4972 44.6017 82 41M86 41C85.1194 43.0214 84.5036 44.8541 84 47L88 47L87 50C89.5507 49.6216 91.627 49.0123 94 48L94 47C91.8959 46.1236 91.2477 45.9545 89 46C88.1808 43.894 87.5125 42.6527 86 41M154 41L153 49C151.774 47.0208 151.411 46.251 151 44C149.203 44 149.479 44.0143 148 45C149.48 48.166 151.168 49.9512 154 52C154.478 48.22 155.497 44.6017 154 41z"/>
<path style="fill:#252525; stroke:#252525;" d="M158 41C157.119 43.0213 156.504 44.8542 156 47L160 47L159 50C161.551 49.6216 163.627 49.0123 166 48L166 47C163.896 46.1236 163.248 45.9545 161 46C160.181 43.894 159.513 42.6527 158 41z"/>
<path style="fill:#313131; stroke:#313131;" d="M226 41L220 45C221.48 48.166 223.168 49.9512 226 52C226.478 48.22 227.497 44.6017 226 41z"/>
<path style="fill:#252525; stroke:#252525;" d="M230 41C229.119 43.0213 228.504 44.8542 228 47L232 47L231 50C233.551 49.6216 235.627 49.0123 238 48L238 47C235.896 46.1236 235.248 45.9545 233 46C232.181 43.894 231.512 42.6527 230 41z"/>
<path style="fill:#ffffff; stroke:#ffffff;" d="M225 43L222 45C222.936 46.9485 223.392 47.5502 225 49C225.387 46.7316 225.676 45.1635 225 43M7 44C6.86197 46.6671 7.08869 47.1074 9 49L9 44L7 44z"/>
<path style="fill:#1f1f1f; stroke:#1f1f1f;" d="M60 52C58.478 54.6079 57.1607 57.2127 56 60C58.0955 61.043 59.6987 61.6028 62 62C61.9694 58.3536 61.8997 55.1714 60 52M132 52C130.414 54.618 129.045 57.1263 128 60C130.095 61.043 131.699 61.6028 134 62C133.926 58.4251 133.692 55.1817 132 52M204 52C202.414 54.618 201.045 57.1263 200 60C202.095 61.043 203.699 61.6028 206 62C205.926 58.4251 205.692 55.1817 204 52z"/>
<path style="fill:#ffffff; stroke:#ffffff;" d="M59 56C58.7114 58.7192 58.8248 59.3623 61 61C60.6137 58.8574 60.2549 57.7505 59 56M131 56C130.711 58.7192 130.825 59.3623 133 61C132.614 58.8573 132.255 57.7505 131 56M203 56C202.711 58.7192 202.825 59.3623 205 61C204.614 58.8573 204.255 57.7505 203 56z"/>
<path style="fill:#313131; stroke:#313131;" d="M54 65L52 71L56 71L55 74C57.5507 73.6216 59.6269 73.0123 62 72L62 71C59.8959 70.1236 59.2477 69.9545 57 70C56.1808 67.894 55.5125 66.6527 54 65M126 65C125.119 67.0214 124.504 68.8541 124 71L128 71L127 74C129.551 73.6216 131.627 73.0123 134 72L134 71C131.896 70.1236 131.248 69.9545 129 70C128.181 67.894 127.513 66.6527 126 65z"/>
<path style="fill:#252525; stroke:#252525;" d="M198 65C197.119 67.0214 196.504 68.8542 196 71L200 71L199 74C201.551 73.6216 203.627 73.0123 206 72L206 71C203.896 70.1237 203.248 69.9545 201 70C200.181 67.8939 199.513 66.6528 198 65z"/>
<path style="fill:#1f1f1f; stroke:#1f1f1f;" d="M26 75C24.478 77.6079 23.1607 80.2127 22 83C24.0955 84.043 25.6987 84.6028 28 85C27.9694 81.3536 27.8997 78.1714 26 75M98 75C96.4144 77.6179 95.0453 80.1263 94 83C96.0955 84.043 97.6987 84.6028 100 85C99.9258 81.425 99.6916 78.1817 98 75M170 75C168.414 77.618 167.045 80.1263 166 83C168.095 84.043 169.699 84.6028 172 85C171.926 81.4251 171.692 78.1817 170 75M242 75C240.414 77.618 239.045 80.1263 238 83C240.095 84.043 241.699 84.6028 244 85C243.926 81.4251 243.692 78.1817 242 75z"/>
<path style="fill:#ffffff; stroke:#ffffff;" d="M25 79C24.7114 81.7192 24.8248 82.3623 27 84C26.6137 81.8574 26.2549 80.7505 25 79M97 79C96.7114 81.7192 96.8248 82.3623 99 84C98.6137 81.8573 98.2549 80.7505 97 79M169 79C168.711 81.7192 168.825 82.3623 171 84C170.614 81.8573 170.255 80.7505 169 79M241 79C240.711 81.7192 240.825 82.3623 243 84C242.614 81.8573 242.255 80.7505 241 79z"/>
<path style="fill:#171717; stroke:#171717;" d="M88 89C87.11 90.7447 86.547 92.125 86 94L91 94L91 93C89.42 92.3164 89.2228 92.1952 88 91L90 92C89.3164 90.42 89.1952 90.2228 88 89M160 89C159.11 90.7448 158.547 92.1249 158 94L163 94L163 93C161.42 92.3164 161.223 92.1952 160 91L162 92C161.316 90.42 161.195 90.2227 160 89M232 89C231.11 90.7448 230.547 92.1249 230 94L235 94L235 93C233.42 92.3164 233.223 92.1952 232 91L234 92C233.316 90.42 233.195 90.2228 232 89z"/>
<path style="fill:#090909; stroke:#090909;" d="M17 98C19.5507 97.6216 21.627 97.0123 24 96C20.7596 93.2744 18.9632 94.5864 17 98M89 98C91.5507 97.6215 93.627 97.0123 96 96C92.7596 93.2744 90.9632 94.5864 89 98z"/>
<path style="fill:#252525; stroke:#252525;" d="M161 98C163.551 97.6216 165.627 97.0123 168 96C164.76 93.2744 162.963 94.5864 161 98M233 98C235.551 97.6216 237.627 97.0123 240 96C236.76 93.2745 234.963 94.5864 233 98z"/>
<path style="fill:#313131; stroke:#313131;" d="M10 113L4 117C5.47976 120.166 7.16844 121.951 10 124C10.7 120.229 11.512 116.611 10 113M14 113L12 119L16 119L15 122C17.5507 121.622 19.627 121.012 22 120L22 119C19.8958 118.124 19.2477 117.954 17 118C16.1808 115.894 15.5125 114.653 14 113M82 113L81 121C79.7741 119.021 79.4108 118.251 79 116C77.2032 116 77.4785 116.014 76 117C77.4798 120.166 79.1684 121.951 82 124C82.4777 120.22 83.4972 116.602 82 113z"/>
<path style="fill:#252525; stroke:#252525;" d="M86 113C85.1194 115.021 84.5036 116.854 84 119L88 119L87 122C89.5507 121.622 91.627 121.012 94 120L94 119C91.8958 118.124 91.2477 117.954 89 118C88.1808 115.894 87.5125 114.653 86 113z"/>
<path style="fill:#313131; stroke:#313131;" d="M154 113L148 117C149.48 120.166 151.168 121.951 154 124C154.478 120.22 155.497 116.602 154 113z"/>
<path style="fill:#252525; stroke:#252525;" d="M158 113C157.119 115.021 156.504 116.854 156 119L160 119L159 122C161.551 121.622 163.627 121.012 166 120L166 119C163.896 118.124 163.248 117.954 161 118C160.181 115.894 159.513 114.653 158 113z"/>
<path style="fill:#313131; stroke:#313131;" d="M226 113L220 117C221.48 120.166 223.168 121.951 226 124C226.478 120.22 227.497 116.602 226 113z"/>
<path style="fill:#232323; stroke:#232323;" d="M230 113C229.119 115.021 228.504 116.854 228 119L232 119L231 122C233.551 121.622 235.627 121.012 238 120L238 119C235.896 118.124 235.248 117.954 233 118C232.181 115.894 231.512 114.653 230 113z"/>
<path style="fill:#ffffff; stroke:#ffffff;" d="M153 115L150 117C150.936 118.949 151.392 119.55 153 121C153.387 118.732 153.676 117.164 153 115M225 115L222 117C222.936 118.949 223.392 119.55 225 121C225.387 118.732 225.676 117.164 225 115M7 116C6.86197 118.667 7.08871 119.107 9 121L9 116L7 116z"/>
<path style="fill:#1f1f1f; stroke:#1f1f1f;" d="M60 124C58.478 126.608 57.1607 129.213 56 132C58.0955 133.043 59.6987 133.603 62 134C61.9694 130.354 61.8997 127.171 60 124M132 124C130.414 126.618 129.045 129.126 128 132C130.095 133.043 131.699 133.603 134 134C133.926 130.425 133.692 127.182 132 124M204 124C202.414 126.618 201.045 129.126 200 132C202.095 133.043 203.699 133.603 206 134C205.926 130.425 205.692 127.182 204 124z"/>
<path style="fill:#ffffff; stroke:#ffffff;" d="M59 128C58.7114 130.719 58.8249 131.362 61 133C60.6137 130.857 60.2549 129.75 59 128M131 128C130.711 130.719 130.825 131.362 133 133C132.614 130.857 132.255 129.751 131 128M203 128C202.711 130.719 202.825 131.362 205 133C204.614 130.857 204.255 129.751 203 128z"/>
<path style="fill:#313131; stroke:#313131;" d="M54 137L52 143L56 143L55 146C57.5507 145.622 59.627 145.012 62 144L62 143C59.8959 142.124 59.2477 141.954 57 142C56.1808 139.894 55.5125 138.653 54 137z"/>
<path style="fill:#252525; stroke:#252525;" d="M126 137C125.119 139.021 124.504 140.854 124 143L128 143L127 146C129.551 145.622 131.627 145.012 134 144L134 143C131.896 142.124 131.248 141.954 129 142C128.181 139.894 127.512 138.653 126 137M198 137C197.119 139.021 196.504 140.854 196 143L200 143L199 146C201.551 145.622 203.627 145.012 206 144L206 143C203.896 142.124 203.248 141.954 201 142C200.181 139.894 199.512 138.653 198 137z"/>
<path style="fill:#1f1f1f; stroke:#1f1f1f;" d="M26 147C24.478 149.608 23.1607 152.213 22 155C24.0955 156.043 25.6987 156.603 28 157C27.9694 153.354 27.8997 150.171 26 147M98 147C96.4145 149.618 95.0453 152.126 94 155C96.0955 156.043 97.6987 156.603 100 157C99.9258 153.425 99.6916 150.182 98 147M170 147C168.414 149.618 167.045 152.126 166 155C168.095 156.043 169.699 156.603 172 157C171.926 153.425 171.692 150.182 170 147M242 147C240.414 149.618 239.045 152.126 238 155C240.095 156.043 241.699 156.603 244 157C243.926 153.425 243.692 150.182 242 147z"/>
<path style="fill:#ffffff; stroke:#ffffff;" d="M25 151C24.7114 153.719 24.8248 154.362 27 156C26.6137 153.857 26.2549 152.75 25 151M97 151C96.7114 153.719 96.8248 154.362 99 156C98.6137 153.857 98.2549 152.75 97 151M169 151C168.711 153.719 168.825 154.362 171 156C170.614 153.857 170.255 152.751 169 151M241 151C240.711 153.719 240.825 154.362 243 156C242.614 153.857 242.255 152.751 241 151z"/>
<path style="fill:#171717; stroke:#171717;" d="M88 161C87.11 162.745 86.5471 164.125 86 166L91 166L91 165C89.42 164.316 89.2228 164.195 88 163L90 164C89.3164 162.42 89.1952 162.223 88 161M160 161C159.11 162.745 158.547 164.125 158 166L163 166L163 165C161.42 164.316 161.223 164.195 160 163L162 164C161.316 162.42 161.195 162.223 160 161M232 161C231.11 162.745 230.547 164.125 230 166L235 166L235 165C233.42 164.316 233.223 164.195 232 163L234 164C233.316 162.42 233.195 162.223 232 161z"/>
<path style="fill:#090909; stroke:#090909;" d="M17 170C19.5507 169.622 21.627 169.012 24 168C20.7596 165.274 18.9632 166.586 17 170z"/>
<path style="fill:#252525; stroke:#252525;" d="M89 170C91.5507 169.622 93.627 169.012 96 168C92.7596 165.274 90.9632 166.586 89 170M161 170C163.551 169.622 165.627 169.012 168 168C164.76 165.274 162.963 166.586 161 170z"/>
<path style="fill:#313131; stroke:#313131;" d="M233 170C235.551 169.622 237.627 169.012 240 168C236.76 165.274 234.963 166.586 233 170z"/>
<path style="fill:#050505; stroke:#050505;" d="M10 185L4 189C5.47976 192.166 7.16844 193.951 10 196C10.7 192.229 11.512 188.611 10 185z"/>
<path style="fill:#252525; stroke:#252525;" d="M14 185C13.1195 187.021 12.5036 188.854 12 191L16 191L15 194C17.5507 193.622 19.627 193.012 22 192C20.1074 190.089 19.6671 189.862 17 190C16.1808 187.894 15.5125 186.653 14 185z"/>
<path style="fill:#313131; stroke:#313131;" d="M82 185L76 189C77.4798 192.166 79.1684 193.951 82 196C82.4777 192.22 83.4972 188.602 82 185z"/>
<path style="fill:#232323; stroke:#232323;" d="M86 185C85.1195 187.021 84.5036 188.854 84 191L88 191L87 194C89.5507 193.622 91.627 193.012 94 192L94 191C91.8959 190.124 91.2477 189.954 89 190C88.1808 187.894 87.5125 186.653 86 185z"/>
<path style="fill:#313131; stroke:#313131;" d="M154 185L148 189C149.48 192.166 151.168 193.951 154 196C154.478 192.22 155.497 188.602 154 185z"/>
<path style="fill:#232323; stroke:#232323;" d="M158 185C157.119 187.021 156.504 188.854 156 191L160 191L159 194C161.551 193.622 163.627 193.012 166 192L166 191C163.896 190.124 163.248 189.954 161 190C160.181 187.894 159.512 186.653 158 185z"/>
<path style="fill:#313131; stroke:#313131;" d="M226 185L220 189C221.48 192.166 223.168 193.951 226 196C226.478 192.22 227.497 188.602 226 185z"/>
<path style="fill:#232323; stroke:#232323;" d="M230 185C229.119 187.021 228.504 188.854 228 191L232 191L231 194C233.551 193.622 235.627 193.012 238 192L238 191C235.896 190.124 235.248 189.954 233 190C232.181 187.894 231.513 186.653 230 185z"/>
<path style="fill:#ffffff; stroke:#ffffff;" d="M81 187L78 189C78.9357 190.949 79.3924 191.55 81 193C81.387 190.732 81.6756 189.163 81 187M153 187L150 189C150.936 190.949 151.392 191.55 153 193C153.387 190.732 153.676 189.164 153 187M225 187L222 189C222.936 190.949 223.392 191.55 225 193C225.387 190.732 225.676 189.164 225 187M7 188C6.86197 190.667 7.08871 191.107 9 193L9 188L7 188z"/>
<path style="fill:#474747; stroke:#474747;" d="M53 196C51.6021 198.05 50.7492 199.646 50 202L55 204C54.965 200.808 54.9418 198.56 53 196z"/>
<path style="fill:#3f3f3f; stroke:#3f3f3f;" d="M60 196C58.4144 198.618 57.0453 201.126 56 204C58.0955 205.043 59.6987 205.603 62 206C61.9971 202.268 62.3029 199.04 60 196z"/>
<path style="fill:#1f1f1f; stroke:#1f1f1f;" d="M132 196C130.414 198.618 129.045 201.126 128 204C130.095 205.043 131.699 205.603 134 206C133.926 202.425 133.692 199.182 132 196M204 196C202.414 198.618 201.045 201.126 200 204C202.095 205.043 203.699 205.603 206 206C205.926 202.425 205.692 199.182 204 196z"/>
<path style="fill:#ffffff; stroke:#ffffff;" d="M59 200C58.7114 202.719 58.8248 203.362 61 205C60.6137 202.857 60.2549 201.751 59 200M131 200C130.711 202.719 130.825 203.362 133 205C132.614 202.857 132.255 201.75 131 200M203 200C202.711 202.719 202.825 203.362 205 205C204.614 202.857 204.255 201.75 203 200z"/>
<path style="fill:#252525; stroke:#252525;" d="M54 209C53.1195 211.021 52.5036 212.854 52 215L56 215L55 218C57.5507 217.622 59.627 217.012 62 216C60.1074 214.089 59.6671 213.862 57 214C56.1808 211.894 55.5125 210.653 54 209z"/>
<path style="fill:#232323; stroke:#232323;" d="M126 209C125.119 211.021 124.504 212.854 124 215L128 215L127 218C129.551 217.622 131.627 217.012 134 216L134 215C131.896 214.124 131.248 213.954 129 214C128.181 211.894 127.513 210.653 126 209M198 209C197.119 211.021 196.504 212.854 196 215L200 215L199 218C201.551 217.622 203.627 217.012 206 216L206 215C203.896 214.124 203.248 213.954 201 214C200.181 211.894 199.513 210.653 198 209z"/>
<path style="fill:#474747; stroke:#474747;" d="M19 219C17.6021 221.05 16.7492 222.646 16 225L21 227C20.965 223.808 20.9418 221.56 19 219z"/>
<path style="fill:#3f3f3f; stroke:#3f3f3f;" d="M26 219C24.4144 221.618 23.0453 224.126 22 227C24.0955 228.043 25.6987 228.603 28 229C27.9971 225.268 28.303 222.04 26 219z"/>
<path style="fill:#1f1f1f; stroke:#1f1f1f;" d="M98 219C96.4144 221.618 95.0453 224.126 94 227C96.0955 228.043 97.6987 228.603 100 229C99.9258 225.425 99.6916 222.182 98 219M170 219C168.414 221.618 167.045 224.126 166 227C168.095 228.043 169.699 228.603 172 229C171.926 225.425 171.692 222.182 170 219M242 219C240.414 221.618 239.045 224.126 238 227C240.095 228.043 241.699 228.603 244 229C243.926 225.425 243.692 222.182 242 219z"/>
<path style="fill:#ffffff; stroke:#ffffff;" d="M25 223C24.7114 225.719 24.8248 226.362 27 228C26.6137 225.857 26.2549 224.75 25 223M97 223C96.7114 225.719 96.8248 226.362 99 228C98.6137 225.857 98.2549 224.75 97 223M169 223C168.711 225.719 168.825 226.362 171 228C170.614 225.857 170.255 224.751 169 223M241 223C240.711 225.719 240.825 226.362 243 228C242.614 225.857 242.255 224.75 241 223z"/>
<path style="fill:#515151; stroke:#515151;" d="M16 233C15.11 234.745 14.547 236.125 14 238L19 238C18.2507 235.746 17.6559 234.686 16 233z"/>
<path style="fill:#171717; stroke:#171717;" d="M88 233C87.11 234.745 86.5471 236.125 86 238L91 238L91 237C89.42 236.316 89.2228 236.195 88 235L90 236C89.3164 234.42 89.1952 234.223 88 233M160 233C159.11 234.745 158.547 236.125 158 238L163 238L163 237C161.42 236.316 161.223 236.195 160 235L162 236C161.316 234.42 161.195 234.223 160 233M232 233C231.11 234.745 230.547 236.125 230 238L235 238L235 237C233.42 236.316 233.223 236.195 232 235L234 236C233.316 234.42 233.195 234.223 232 233z"/>
<path style="fill:#252525; stroke:#252525;" d="M17 242C19.5507 241.622 21.627 241.012 24 240C20.7994 237.035 18.9766 238.516 17 242z"/>
<path style="fill:#313131; stroke:#313131;" d="M89 242C91.5507 241.622 93.6269 241.012 96 240C92.7596 237.274 90.9632 238.586 89 242M161 242C163.551 241.622 165.627 241.012 168 240C164.76 237.274 162.963 238.586 161 242M233 242C235.551 241.622 237.627 241.012 240 240C236.76 237.274 234.963 238.586 233 242z"/>
<path style="fill:#474747; stroke:#474747;" d="M62 244C60.4144 246.618 59.0453 249.126 58 252C60.1059 252.644 61.7951 252.906 64 253C63.9885 249.534 64.1247 246.804 62 244z"/>
</svg>
