<?xml version="1.0" encoding="UTF-8"?>
<svg xmlns="http://www.w3.org/2000/svg" xmlns:xlink="http://www.w3.org/1999/xlink" width="61pt" height="61pt" viewBox="0 0 256 256" version="1.1">

<path style="fill:#010101; stroke:#010101;" d="M23 0L23 1L30 1C27.6684 0.0154724 25.5433 0.0187378 23 0z"/>
<path style="fill:#212121; stroke:#212121;" d="M45.6667 0.333328C45.2223 0.777756 46.2778 0.722229 46.3333 0.666672C46.7778 0.222183 45.7222 0.277786 45.6667 0.333328z"/>
<path style="fill:#313131; stroke:#313131;" d="M58 0C58.1977 3.59888 58.6391 7.1563 62.8835 7.69135C63.9069 7.82034 65.0993 7.23917 66 7L66 6C61.1811 6.1548 60.223 3.82507 58 0z"/>
<path style="fill:#252525; stroke:#252525;" d="M68 0C67.794 2.3365 67.0627 3.88876 66 6C68.7104 4.51094 70.6992 2.49123 68 0z"/>
<path style="fill:#010101; stroke:#010101;" d="M95 0L95 1L102 1C99.6684 0.0154724 97.5434 0.0187378 95 0z"/>
<path style="fill:#212121; stroke:#212121;" d="M117.667 0.333328C117.222 0.777878 118.278 0.722198 118.333 0.666672C118.778 0.222275 117.722 0.27774 117.667 0.333328z"/>
<path style="fill:#313131; stroke:#313131;" d="M130 0C130.198 3.59886 130.639 7.1563 134.883 7.69135C135.907 7.82034 137.099 7.23914 138 7L138 6C133.181 6.1548 132.223 3.82507 130 0z"/>
<path style="fill:#252525; stroke:#252525;" d="M140 0C139.794 2.33652 139.063 3.88876 138 6C140.71 4.51096 142.699 2.49126 140 0z"/>
<path style="fill:#010101; stroke:#010101;" d="M167 0L167 1L174 1C171.668 0.0154724 169.543 0.0187378 167 0z"/>
<path style="fill:#212121; stroke:#212121;" d="M189.667 0.333328C189.222 0.777832 190.278 0.722183 190.333 0.666672C190.778 0.222198 189.722 0.277771 189.667 0.333328z"/>
<path style="fill:#313131; stroke:#313131;" d="M202 0C202.198 3.59886 202.639 7.1563 206.883 7.69135C207.907 7.82033 209.099 7.23912 210 7L210 6C205.181 6.1548 204.223 3.82507 202 0z"/>
<path style="fill:#252525; stroke:#252525;" d="M212 0C211.634 2.2955 211.021 3.892 210 6C212.71 4.51096 214.699 2.49126 212 0z"/>
<path style="fill:#010101; stroke:#010101;" d="M239 0L239 1L246 1C243.668 0.0154724 241.543 0.0187378 239 0M1 2L1 3C5.34103 4.27979 8.73615 4.33289 12 1C8.02277 2.23006 5.13283 2.72165 1 2z"/>
<path style="fill:#595959; stroke:#595959;" d="M13 6C15.1506 4.88054 17.5258 3.21922 20.0008 2.99228C23.9462 2.63051 27.289 6.14409 27.2662 10.0008C27.2505 12.6678 25.7233 15.4582 25 18C28.2503 14.743 30.3705 9.57918 27.821 5.13348C24.3573 -0.90625 15.9737 0.778244 13 6z"/>
<path style="fill:#010101; stroke:#010101;" d="M73 2L73 3C77.341 4.27979 80.7362 4.33287 84 1C80.0228 2.23004 77.1328 2.72163 73 2z"/>
<path style="fill:#595959; stroke:#595959;" d="M85 6C87.1506 4.88054 89.5258 3.21922 92.0008 2.99228C95.9462 2.63051 99.289 6.14409 99.2662 10.0008C99.2505 12.6678 97.7233 15.4582 97 18C100.25 14.743 102.371 9.57918 99.821 5.13348C96.3573 -0.90625 87.9737 0.778229 85 6z"/>
<path style="fill:#010101; stroke:#010101;" d="M145 2L145 3C149.341 4.27979 152.736 4.33287 156 1C152.023 2.23004 149.133 2.72163 145 2z"/>
<path style="fill:#595959; stroke:#595959;" d="M157 6C159.151 4.88057 161.526 3.21922 164.001 2.99228C167.946 2.63051 171.289 6.14409 171.266 10.0008C171.25 12.6678 169.723 15.4583 169 18C172.25 14.743 174.37 9.57919 171.821 5.13348C168.357 -0.90625 159.974 0.778244 157 6z"/>
<path style="fill:#010101; stroke:#010101;" d="M217 2L217 3C221.341 4.27979 224.736 4.33286 228 1C224.023 2.23003 221.133 2.72163 217 2z"/>
<path style="fill:#595959; stroke:#595959;" d="M229 6C231.151 4.88057 233.526 3.21922 236.001 2.99228C242.189 2.4248 244.443 9.28276 242.146 13.9846C239.634 19.1255 235.344 20.522 230 20C239.853 27.4247 250.947 8.59552 240.891 2.31868C239.746 1.6041 238.308 1.41653 236.999 1.29398C235.686 1.17097 234.265 1.51488 233.059 2.00848C230.922 2.88292 230.077 4.10889 229 6z"/>
<path style="fill:#010101; stroke:#010101;" d="M49 3C49.4401 6.55977 50.4693 10.5026 48.1412 13.6566C45.2128 17.6239 37.3221 19.5276 33.7029 15.5664C31.5852 13.2485 31.2609 9.96576 31 7L30 7C30.0714 10.3324 30.0784 14.0747 32.5139 16.6821C36.567 21.0212 46.1557 19.4517 49.3966 14.8912C51.908 11.3573 51.2879 6.34898 49 3M121 3C121.44 6.55975 122.469 10.5027 120.141 13.6566C117.213 17.624 109.322 19.5276 105.703 15.5664C103.585 13.2485 103.261 9.96579 103 7L102 7C102.071 10.3324 102.078 14.0747 104.514 16.6821C108.567 21.0212 118.156 19.4517 121.397 14.8912C123.908 11.3573 123.288 6.34897 121 3z"/>
<path style="fill:#252525; stroke:#252525;" d="M177 3C176.043 4.51671 175.613 5.33847 175 7C176.63 5.48518 177.163 5.14474 177 3z"/>
<path style="fill:#010101; stroke:#010101;" d="M193 3L194 13L195 13C194.989 9.30428 195.124 6.10909 193 3z"/>
<path style="fill:#252525; stroke:#252525;" d="M249 3C248.043 4.51669 247.613 5.33849 247 7C248.63 5.48518 249.163 5.14474 249 3z"/>
<path style="fill:#010101; stroke:#010101;" d="M0 5L0 6L7 6C4.66843 5.01547 2.54336 5.01874 0 5M71 5L71 6L79 6C76.3873 4.90228 73.8355 5.00722 71 5M141 10L142 10C144.782 6.91096 146.873 6.13339 151 6C146.421 4.0834 142.721 5.31834 141 10M213 10L214 10C216.782 6.91096 218.873 6.13339 223 6C218.421 4.08339 214.721 5.31834 213 10M12 6C9.98796 10.7683 9.05333 15.1345 13 19C12.4091 17.0541 11.5953 15.0575 11.5833 12.9961C11.5688 10.4873 12.5193 8.46049 12 6z"/>
<path style="fill:#111111; stroke:#111111;" d="M84 6C81.7492 10.6772 81.0839 15.165 85 19C84.4091 17.0541 83.5953 15.0575 83.5833 12.9961C83.5688 10.4872 84.5193 8.46053 84 6M156 6C153.749 10.6772 153.084 15.165 157 19C156.409 17.054 155.595 15.0576 155.583 12.9961C155.569 10.4873 156.519 8.46049 156 6M228 6C225.749 10.6772 225.084 15.165 229 19C228.409 17.054 227.595 15.0576 227.583 12.9961C227.569 10.4873 228.519 8.46049 228 6z"/>
<path style="fill:#474747; stroke:#474747;" d="M7 7L7 14L8 14C8.73283 11.0496 8.71216 9.52876 7 7M79 7L79 14L80 14C80.7328 11.0496 80.7122 9.52875 79 7z"/>
<path style="fill:#010101; stroke:#010101;" d="M174 7C174.077 10.6495 174.578 13.6305 176 17L177 17C176.228 13.6239 175.506 10.108 174 7M246 7C246.077 10.6495 246.578 13.6305 248 17L249 17C248.228 13.6239 247.506 10.108 246 7M57 10L57 11L64 10C61.4769 9.00977 59.6417 9.38309 57 10M129 10L129 11L136 10C133.477 9.00975 131.642 9.38309 129 10z"/>
<path style="fill:#474747; stroke:#474747;" d="M198 14C201.323 12.1028 204.199 10.601 208 10C203.734 8.3396 200.097 10.1037 198 14z"/>
<path style="fill:#414141; stroke:#414141;" d="M65 10C66.7756 14.6187 67.5194 18.0567 67 23L68 23L69 22L69 17L70 16L71 17C69.5948 13.7135 68.1553 11.7041 65 10M137 10C138.776 14.6187 139.519 18.0568 139 23L140 23L141 22L141 17L142 16L143 17C141.595 13.7136 140.155 11.7041 137 10M209 10C210.776 14.6186 211.519 18.0568 211 23L212 23L213 22L213 17L214 16L215 17C213.595 13.7136 212.155 11.7041 209 10z"/>
<path style="fill:#010101; stroke:#010101;" d="M6 14C3.88511 15.5731 2.53036 16.3518 0 17L0 18C3.0013 17.7733 6.08357 17.4765 6 14z"/>
<path style="fill:#595959; stroke:#595959;" d="M53 14C51.9422 17.5847 51.9421 20.4153 53 24L47 23L47 24L49.9313 25.1852C54.1158 28.6635 51.4834 32.8132 50 37C53.597 33.8258 53.9579 30.6521 54 26C57.9084 26.9301 61.132 27.1407 65 26L65 25C60.5485 25.5223 55.8277 26.1057 53.9321 20.9568L53 14z"/>
<path style="fill:#010101; stroke:#010101;" d="M78 14C75.5582 15.7753 73.9775 16.5679 71 17L71 18C74.162 17.8974 78.0911 17.8473 78 14z"/>
<path style="fill:#595959; stroke:#595959;" d="M125 14C123.942 17.5847 123.942 20.4153 125 24L119 23L119 24L121.931 25.1852C126.116 28.6635 123.483 32.8132 122 37C125.597 33.8257 125.958 30.6521 126 26C129.908 26.9301 133.132 27.1407 137 26L137 25C132.548 25.5223 127.828 26.1057 125.932 20.9568L125 14z"/>
<path style="fill:#010101; stroke:#010101;" d="M150 14C147.558 15.7753 145.977 16.5679 143 17L143 18C146.162 17.8974 150.091 17.8473 150 14z"/>
<path style="fill:#595959; stroke:#595959;" d="M197 14C195.942 17.5847 195.942 20.4153 197 24L191 23L191 24L193.931 25.1852C198.116 28.6635 195.483 32.8133 194 37C197.597 33.8258 197.958 30.6521 198 26C201.908 26.9301 205.132 27.1407 209 26L209 25C204.548 25.5223 199.828 26.1057 197.932 20.9568L197 14z"/>
<path style="fill:#010101; stroke:#010101;" d="M222 14C219.558 15.7752 217.977 16.5679 215 17L215 18C218.162 17.8974 222.091 17.8473 222 14M177 17L177 18C182.764 19.7037 188.837 19.717 193 15C187.259 16.8388 183.049 18.1063 177 17M249 17L249 18C251.418 18.7224 253.472 18.9481 256 19L256 18L249 17z"/>
<path style="fill:#313131; stroke:#313131;" d="M0 26L1 26C3.19352 22.2309 5.82728 21.006 10 20C5.04218 18.2417 1.04282 21.1111 0 26z"/>
<path style="fill:#252525; stroke:#252525;" d="M14 20L14 21C17.847 22.1034 20.4038 21.729 24 20C20.7947 19.3114 17.3686 20.3321 14 20z"/>
<path style="fill:#313131; stroke:#313131;" d="M71 27L72 27C74.732 22.9338 77.232 21.1495 82 20C76.43 18.0246 72.5411 21.9364 71 27z"/>
<path style="fill:#252525; stroke:#252525;" d="M86 20L86 21C89.847 22.1034 92.4038 21.729 96 20C92.7947 19.3114 89.3686 20.3321 86 20z"/>
<path style="fill:#2b2b2b; stroke:#2b2b2b;" d="M143 27L144 27C146.732 22.9337 149.232 21.1495 154 20C148.434 18.0264 144.382 21.8347 143 27z"/>
<path style="fill:#252525; stroke:#252525;" d="M158 20L158 21C161.847 22.1034 164.404 21.729 168 20C164.795 19.3114 161.369 20.3321 158 20z"/>
<path style="fill:#2b2b2b; stroke:#2b2b2b;" d="M215 27L216 27C218.732 22.9337 221.232 21.1495 226 20C220.434 18.0264 216.382 21.8347 215 27z"/>
<path style="fill:#010101; stroke:#010101;" d="M24 22L24 23L31 22C28.4768 21.0098 26.6418 21.3831 24 22M96 22L96 23L103 22C100.477 21.0098 98.6418 21.3831 96 22M168 22L168 23L175 22C172.477 21.0098 170.642 21.3831 168 22M240 22L240 23L247 22C244.477 21.0098 242.642 21.3831 240 22M14 23C14.0006 28.0804 13.4838 31.9132 18 35C17.3163 32.0388 17.3523 29.9653 18 27L17 27C16.0143 28.4785 16 28.2032 16 30L15 30C14.9813 27.4567 14.9845 25.3315 14 23z"/>
<path style="fill:#494949; stroke:#494949;" d="M18 27L24 24C20.9394 23.1821 19.5357 24.3603 18 27z"/>
<path style="fill:#010101; stroke:#010101;" d="M86 23C86.0006 28.0804 85.4838 31.9132 90 35C89.3163 32.0389 89.3523 29.9652 90 27L89 27C88.0143 28.4785 88 28.2032 88 30L87 30C86.9813 27.4567 86.9845 25.3315 86 23z"/>
<path style="fill:#494949; stroke:#494949;" d="M90 27L96 24C92.9394 23.1821 91.5357 24.3603 90 27z"/>
<path style="fill:#010101; stroke:#010101;" d="M158 23C158.001 28.0804 157.484 31.9131 162 35C161.316 32.0388 161.352 29.9653 162 27L161 27C160.014 28.4785 160 28.2032 160 30L159 30C158.981 27.4567 158.985 25.3315 158 23z"/>
<path style="fill:#494949; stroke:#494949;" d="M162 27L168 24C164.939 23.1821 163.536 24.3603 162 27z"/>
<path style="fill:#010101; stroke:#010101;" d="M230 23C230.001 28.0804 229.484 31.9131 234 35C233.316 32.0388 233.352 29.9652 234 27L233 27C232.014 28.4785 232 28.2032 232 30L231 30C230.981 27.4567 230.985 25.3315 230 23z"/>
<path style="fill:#474747; stroke:#474747;" d="M234 27L240 24C236.939 23.1821 235.536 24.3603 234 27z"/>
<path style="fill:#252525; stroke:#252525;" d="M184 38C183.342 36.4017 182.44 34.7741 182.576 32.9753C182.803 29.991 185.403 27.3766 187 25C182.689 27.0604 178.435 31.4252 181.586 36.3897C182.146 37.2716 183.173 37.5163 184 38M34 26C33.6569 28.8061 32.8448 31.3046 32 34C34.5287 31.5245 35.3604 29.3707 34 26M106 26C105.657 28.8061 104.845 31.3046 104 34C106.529 31.5245 107.36 29.3707 106 26M178 26C177.657 28.8062 176.845 31.3046 176 34C178.529 31.5245 179.36 29.3707 178 26z"/>
<path style="fill:#515151; stroke:#515151;" d="M255 27C252.257 31.1747 251.144 35.1609 256 38C256 34.2998 256.44 30.4324 255 27z"/>
<path style="fill:#474747; stroke:#474747;" d="M203 33L204 33C205.658 31.0784 206.741 30.1046 209 29C205.513 27.87 204.156 29.8518 203 33z"/>
<path style="fill:#1f1f1f; stroke:#1f1f1f;" d="M71 30C71.5637 32.9525 72.645 35.3161 74 38C77.3777 37.4101 79.7457 38.011 83 39C83.1306 37.3595 83.3693 36.5437 84 35C81.812 35.2688 79.2176 35.9959 77.0525 35.3079C74.4703 34.4872 72.8265 31.8388 71 30M143 30C143.564 32.9525 144.645 35.3161 146 38C149.378 37.41 151.746 38.011 155 39C155.131 37.3595 155.369 36.5438 156 35C153.812 35.2688 151.218 35.9959 149.052 35.3079C146.47 34.4872 144.827 31.8388 143 30M215 30C215.564 32.9525 216.645 35.3161 218 38C221.378 37.41 223.746 38.011 227 39C227.131 37.3595 227.369 36.5438 228 35C225.812 35.2688 223.218 35.9959 221.052 35.3079C218.47 34.4872 216.827 31.8388 215 30M0 31C0.30258 33.2943 0.578503 34.2115 2 36L2 37C0.364825 37.5451 0.545061 37.3648 0 39C4.21167 37.7323 6.78833 37.7323 11 39C11.1306 37.3595 11.3693 36.5437 12 35C6.39648 35.6884 3.78762 35.4158 0 31z"/>
<path style="fill:#252525; stroke:#252525;" d="M58 33C58.2297 36.1983 58.7039 37.7655 61 40C60.1982 37.5183 59.3334 35.2366 58 33M130 33C130.23 36.1983 130.704 37.7655 133 40C132.198 37.5182 131.333 35.2366 130 33M202 33C202.23 36.1983 202.704 37.7655 205 40C204.198 37.5183 203.333 35.2366 202 33z"/>
<path style="fill:#010101; stroke:#010101;" d="M18 35C22.2844 39.3743 27.1298 37.728 32 35C29.1018 34.5145 26.9146 36.2135 24.0046 36.3511C21.9571 36.4479 19.9244 35.5833 18 35M90 35C94.2844 39.3743 99.1298 37.728 104 35C101.102 34.5145 98.9146 36.2135 96.0046 36.3511C93.9571 36.4479 91.9244 35.5833 90 35M162 35C166.284 39.3743 171.13 37.7281 176 35C173.102 34.5145 170.915 36.2135 168.005 36.3511C165.957 36.4479 163.924 35.5833 162 35M234 35C238.284 39.3743 243.13 37.7281 248 35C245.102 34.5145 242.915 36.2135 240.005 36.3511C237.957 36.4479 235.924 35.5833 234 35z"/>
<path style="fill:#ffffff; stroke:#ffffff;" d="M0 35L0 38L2 37L2 36L0 35z"/>
<path style="fill:#313131; stroke:#313131;" d="M40 38L40 39C41.8005 39.5618 43.1219 39.8241 45 40L45 41L43 41L43 42L54 40L54 39C51.7571 39 50.8071 39.0843 49 38L50 37C46.4105 38.0906 43.7326 38.5852 40 38M68 37L64 40L64 41C66.5256 40.2594 68.0846 39.7564 68 37M112 38L112 39C113.801 39.5618 115.122 39.8241 117 40L117 41L115 41L115 42L126 40L126 39C123.757 39 122.807 39.0843 121 38L122 37C118.41 38.0906 115.733 38.5852 112 38M140 37L136 40L136 41C138.526 40.2594 140.085 39.7563 140 37M184 38L184 39C185.801 39.5618 187.122 39.8241 189 40L189 41L187 41L187 42L198 40L198 39C195.757 39 194.807 39.0843 193 38L194 37C190.41 38.0906 187.733 38.5852 184 38M212 37L208 40L208 41C210.526 40.2594 212.085 39.7563 212 37z"/>
<path style="fill:#252525; stroke:#252525;" d="M33 55L33 54L30 54C32.4662 51.905 35.1903 49.5102 35.4576 46.0147C35.8184 41.2962 29.9831 38.8135 26.0039 39.7461C20.7334 40.9814 16.5775 48.0413 21.4336 52.2616C24.3315 54.78 29.3711 54.8438 33 55M105 55L105 54L102 54C104.466 51.905 107.19 49.5102 107.458 46.0147C107.818 41.2963 101.983 38.8135 98.0039 39.7461C92.7334 40.9814 88.5775 48.0413 93.4336 52.2616C96.3315 54.78 101.371 54.8438 105 55z"/>
<path style="fill:#313131; stroke:#313131;" d="M177 55L177 54L174 54C176.466 51.905 179.19 49.5102 179.458 46.0147C179.818 41.2962 173.983 38.8135 170.004 39.7461C164.733 40.9814 160.577 48.0413 165.434 52.2616C168.331 54.78 173.371 54.8438 177 55z"/>
<path style="fill:#010101; stroke:#010101;" d="M13 41C13.5186 45.1951 13.5186 48.8049 13 53L14 53C15.2356 48.8184 15.5274 44.6994 13 41z"/>
<path style="fill:#ffffff; stroke:#ffffff;" d="M24.1127 42.0285C17.1568 45.9556 22.9518 55.57 29.8951 51.8171C30.7968 51.3297 31.7388 50.6118 32.3426 49.7716C33.3102 48.4252 34.2769 46.8532 34.0023 45.108C33.3504 40.9657 27.1023 40.3407 24.1127 42.0285z"/>
<path style="fill:#010101; stroke:#010101;" d="M85 41C85.5186 45.1951 85.5186 48.8049 85 53L86 53C87.2356 48.8183 87.5274 44.6994 85 41z"/>
<path style="fill:#ffffff; stroke:#ffffff;" d="M96.1127 42.0285C89.1568 45.9556 94.9517 55.57 101.895 51.8171C102.797 51.3298 103.739 50.6118 104.343 49.7716C105.31 48.4253 106.277 46.8532 106.002 45.108C105.35 40.9657 99.1023 40.3407 96.1127 42.0285z"/>
<path style="fill:#010101; stroke:#010101;" d="M157 41L158 51L159 51C158.989 47.3043 159.124 44.1091 157 41z"/>
<path style="fill:#ffffff; stroke:#ffffff;" d="M168.148 42.0285C161.535 45.9032 166.924 55.5851 173.895 51.8171C174.797 51.3297 175.739 50.6119 176.343 49.7716C177.31 48.4252 178.277 46.8532 178.002 45.108C177.358 41.0138 171.115 40.2906 168.148 42.0285z"/>
<path style="fill:#010101; stroke:#010101;" d="M229 41L230 51L231 51C230.989 47.3043 231.124 44.1091 229 41z"/>
<path style="fill:#313131; stroke:#313131;" d="M244 54L244 55C239.488 56.4409 233.627 59.4834 233.548 64.9761C233.521 66.8081 234.323 68.3608 235 70L236 70C235.645 68.2993 234.873 66.1779 235.256 64.4236C236.424 59.0684 244.202 55.6382 249 55L249 54C247.31 53.7183 247.389 54.3893 246 53L247 52C243.07 52.6346 237.135 52.6408 237.448 46.9892C237.567 44.8327 238.997 42.8264 240 41C235.941 43.1303 233.078 48.5137 237.432 52.2577C239.294 53.8587 241.696 53.8735 244 54z"/>
<path style="fill:#1f1f1f; stroke:#1f1f1f;" d="M184 44L183.237 48.0409C183.387 54.9085 189.633 54.9846 195 55C194.043 56.5166 193.613 57.3385 193 59C196.36 56.884 199.752 54.2551 203.975 54.9738C205.77 55.2791 207.385 56.2215 209 57C208.491 56.128 208.282 55.1795 207.39 54.5818C204.771 52.8277 201.09 52.3705 198 52.6836C194.567 53.0315 191.461 54.4314 188.123 52.6929C184.482 50.7959 185.333 47.2096 184 44z"/>
<path style="fill:#030303; stroke:#030303;" d="M255 46L255 52L256 52C255.953 49.7472 255.874 48.0521 255 46z"/>
<path style="fill:#090909; stroke:#090909;" d="M66 49C66.5036 51.1459 67.1194 52.9786 68 55L69 55C68.3447 52.4633 67.7244 50.9531 66 49M138 49C138.504 51.1458 139.119 52.9786 140 55L141 55C140.345 52.4633 139.724 50.9531 138 49M210 49C210.504 51.1458 211.119 52.9786 212 55L213 55C212.345 52.4633 211.724 50.9531 210 49z"/>
<path style="fill:#393939; stroke:#393939;" d="M0 57L0 58C5.39714 57.9518 9.36749 57.2227 13 53C8.57118 54.5843 4.76025 56.5813 0 57M71 57L71 58C76.7274 57.9836 81.0989 57.535 85 53C80.1951 54.7188 76.1984 56.7619 71 57M143 57L143 58C148.727 57.9836 153.099 57.5349 157 53C152.195 54.7188 148.198 56.7619 143 57M215 57L215 58C220.727 57.9836 225.099 57.5349 229 53C224.195 54.7188 220.198 56.7619 215 57z"/>
<path style="fill:#252525; stroke:#252525;" d="M65 57C64.7963 60.2013 63.9527 62.9494 63 66C65.7462 63.3107 66.5021 60.6224 65 57M137 57C136.796 60.2013 135.953 62.9494 135 66C137.746 63.3107 138.502 60.6224 137 57z"/>
<path style="fill:#090909; stroke:#090909;" d="M19 70L20 70C19.6393 68.2721 18.9031 66.2046 19.2515 64.4213C19.707 62.09 21.7303 59.9391 23 58C17.5528 60.6877 16.7703 64.6001 19 70z"/>
<path style="fill:#313131; stroke:#313131;" d="M91 70L92 70C91.6393 68.272 90.9031 66.2046 91.2515 64.4213C91.707 62.09 93.7303 59.9391 95 58C89.5528 60.6877 88.7703 64.6001 91 70M163 70L164 70C163.639 68.2721 162.903 66.2046 163.252 64.4213C163.707 62.09 165.73 59.9391 167 58C161.553 60.6877 160.77 64.6001 163 70z"/>
<path style="fill:#252525; stroke:#252525;" d="M38 59C38.0129 60.7721 38.0638 62.3132 37.4637 64.0208C34.5583 72.2886 26.9686 71.4183 20 70L20 71C24.2684 73.0541 29.4453 73.8553 33.8951 71.5664C38.3706 69.2641 40.9928 63.1324 38 59M110 59C110.013 60.7721 110.064 62.3132 109.464 64.0208C106.558 72.2885 98.9686 71.4183 92 70L92 71C96.2684 73.0541 101.445 73.8553 105.895 71.5664C110.371 69.2641 112.993 63.1324 110 59z"/>
<path style="fill:#313131; stroke:#313131;" d="M120 59C118.423 62.4953 118.256 64.2271 121 67L120 59z"/>
<path style="fill:#252525; stroke:#252525;" d="M182 59C182.013 60.7721 182.064 62.3132 181.464 64.0208C178.558 72.2885 170.969 71.4183 164 70L164 71C168.268 73.0541 173.445 73.8553 177.895 71.5664C182.371 69.2641 184.993 63.1324 182 59z"/>
<path style="fill:#313131; stroke:#313131;" d="M192 59C190.423 62.4952 190.256 64.2271 193 67L192 59z"/>
<path style="fill:#3f3f3f; stroke:#3f3f3f;" d="M214 71C211.95 69.6021 210.354 68.7492 208 68L208 69C211.43 72.0486 211.851 73.7968 210 78C212.85 76.4436 213.503 75.2071 214 72L216 73C216.362 68.2 218.563 64.6492 222.911 62.2531C226.591 60.2254 230.473 62.7556 230.317 66.9907C230.256 68.653 229.476 70.4293 229 72C232.918 68.1635 233.138 60.0513 225.995 59.6188C219.886 59.2489 215.061 65.7439 214 71z"/>
<path style="fill:#252525; stroke:#252525;" d="M254 59C254.013 60.7721 254.064 62.3132 253.464 64.0208C250.558 72.2885 242.969 71.4183 236 70L236 71C240.268 73.0541 245.445 73.8553 249.895 71.5664C254.371 69.2641 256.993 63.1324 254 59z"/>
<path style="fill:#3f3f3f; stroke:#3f3f3f;" d="M142 71C139.95 69.6021 138.354 68.7492 136 68L136 69C139.62 72.1034 140.083 73.7192 138 78C140.85 76.4436 141.503 75.2071 142 72L144 73C144.343 68.438 146.506 65.7119 149 62C144.872 63.9727 142.906 66.5144 142 71z"/>
<path style="fill:#010101; stroke:#010101;" d="M49 67C49.6474 68.0005 49.6898 69.0021 51 69.5C54.1948 70.714 57.2957 68.9718 60 71L64 67C60.6471 66.6044 58.2856 68.1961 55.0046 68.3511C52.957 68.4478 50.9245 67.5833 49 67z"/>
<path style="fill:#151515; stroke:#151515;" d="M121 67C124.062 70.1266 126.89 70.2004 131 69C130.029 73.1275 129.261 78.9825 134.883 79.6913C135.907 79.8203 137.099 79.2392 138 79L138 78L134.949 77.9769C128.961 75.5842 132.825 69.8715 136 67C132.647 66.6044 130.286 68.1961 127.005 68.3511C124.957 68.4478 122.925 67.5833 121 67z"/>
<path style="fill:#0b0b0b; stroke:#0b0b0b;" d="M193 67C196.062 70.1266 198.89 70.2004 203 69C202.029 73.1275 201.261 78.9825 206.883 79.6913C207.907 79.8203 209.099 79.2392 210 79L210 78L206.949 77.9769C200.961 75.5842 204.825 69.8715 208 67C204.647 66.6044 202.286 68.1961 199.005 68.3511C196.957 68.4478 194.924 67.5833 193 67z"/>
<path style="fill:#ffffff; stroke:#ffffff;" d="M133.513 69.1613C129.321 71.394 131.608 80.3538 136.903 77.7623C138.619 76.9223 140.07 75.0734 139.824 73.0787C139.512 70.539 136.016 67.8281 133.513 69.1613M205.513 69.1613C201.284 71.4135 203.61 80.3029 208.953 77.7623C210.703 76.9303 212.245 75.1252 211.94 73.0787C211.564 70.5593 208.008 67.8326 205.513 69.1613z"/>
<path style="fill:#010101; stroke:#010101;" d="M39 70L39 71L44 71C42.231 70.2211 40.9641 70.0876 39 70M111 70L111 71L116 71C114.231 70.2211 112.964 70.0876 111 70M183 70L183 71L188 71C186.231 70.2211 184.964 70.0876 183 70z"/>
<path style="fill:#313131; stroke:#313131;" d="M58 72C58.1977 75.5989 58.6391 79.1563 62.8835 79.6913C63.9068 79.8203 65.0993 79.2392 66 79L66 78C61.1811 78.1548 60.223 75.8251 58 72z"/>
<path style="fill:#010101; stroke:#010101;" d="M1 74L1 75C5.34103 76.2798 8.73615 76.3329 12 73C8.02277 74.2301 5.13282 74.7216 1 74z"/>
<path style="fill:#595959; stroke:#595959;" d="M13 78C15.1506 76.8805 17.5258 75.2192 20.0008 74.9923C23.9462 74.6305 27.289 78.1441 27.2662 82.0008C27.2505 84.6678 25.7233 87.4582 25 90C28.2503 86.743 30.3705 81.5792 27.821 77.1335C24.3573 71.0937 15.9737 72.7782 13 78z"/>
<path style="fill:#010101; stroke:#010101;" d="M73 74L73 75C77.341 76.2798 80.7362 76.3329 84 73C80.0228 74.23 77.1328 74.7216 73 74z"/>
<path style="fill:#595959; stroke:#595959;" d="M85 78C87.1506 76.8805 89.5258 75.2192 92.0008 74.9923C95.9462 74.6305 99.289 78.1441 99.2662 82.0008C99.2505 84.6678 97.7233 87.4583 97 90C100.25 86.743 102.371 81.5792 99.821 77.1335C96.3573 71.0938 87.9737 72.7782 85 78z"/>
<path style="fill:#010101; stroke:#010101;" d="M145 74L145 75C149.341 76.2798 152.736 76.3329 156 73C152.023 74.23 149.133 74.7216 145 74z"/>
<path style="fill:#595959; stroke:#595959;" d="M157 78C159.151 76.8806 161.526 75.2192 164.001 74.9923C170.189 74.4248 172.443 81.2828 170.146 85.9846C167.634 91.1255 163.344 92.522 158 92C167.853 99.4247 178.947 80.5955 168.891 74.3187C167.746 73.6041 166.308 73.4165 164.999 73.294C163.686 73.171 162.265 73.5149 161.059 74.0085C158.922 74.8829 158.077 76.1089 157 78z"/>
<path style="fill:#010101; stroke:#010101;" d="M217 74L217 75C221.341 76.2798 224.736 76.3329 228 73C224.023 74.23 221.133 74.7216 217 74z"/>
<path style="fill:#595959; stroke:#595959;" d="M229 78C231.151 76.8806 233.526 75.2192 236.001 74.9923C239.946 74.6305 243.289 78.1441 243.266 82.0008C243.25 84.6678 241.723 87.4583 241 90C244.25 86.743 246.37 81.5792 243.821 77.1335C240.357 71.0937 231.974 72.7782 229 78z"/>
<path style="fill:#010101; stroke:#010101;" d="M49 75C49.4401 78.5598 50.4693 82.5026 48.1412 85.6566C45.2128 89.6239 37.3221 91.5276 33.7029 87.5664C31.5852 85.2485 31.2609 81.9658 31 79L30 79C30.0714 82.3324 30.0784 86.0747 32.5139 88.6821C36.567 93.0212 46.1557 91.4517 49.3966 86.8912C51.908 83.3573 51.2879 78.349 49 75M121 75C121.44 78.5598 122.469 82.5027 120.141 85.6566C117.213 89.624 109.322 91.5276 105.703 87.5664C103.585 85.2485 103.261 81.9658 103 79L102 79C102.071 82.3324 102.078 86.0747 104.514 88.6821C108.567 93.0212 118.156 91.4517 121.397 86.8912C123.908 83.3573 123.288 78.349 121 75M193 75L194 85L195 85C194.989 81.3043 195.124 78.1091 193 75M0 77L0 78L7 78C4.66842 77.0155 2.54337 77.0187 0 77M69 82L70 82C72.7822 78.9109 74.8735 78.1334 79 78C74.4212 76.0834 70.7213 77.3183 69 82M141 82L142 82C144.782 78.911 146.873 78.1334 151 78C146.421 76.0834 142.721 77.3183 141 82M213 82L214 82C216.782 78.911 218.873 78.1334 223 78C218.421 76.0834 214.721 77.3184 213 82M12 78C9.98796 82.7683 9.05333 87.1345 13 91C12.4091 89.0541 11.5953 87.0575 11.5833 84.9961C11.5688 82.4873 12.5193 80.4605 12 78z"/>
<path style="fill:#111111; stroke:#111111;" d="M84 78C81.7492 82.6772 81.0839 87.165 85 91C84.4091 89.0541 83.5953 87.0575 83.5833 84.9961C83.5688 82.4872 84.5193 80.4605 84 78M156 78C153.749 82.6772 153.084 87.165 157 91C156.409 89.0541 155.595 87.0575 155.583 84.9961C155.569 82.4873 156.519 80.4605 156 78M228 78C225.749 82.6772 225.084 87.165 229 91C228.409 89.0541 227.595 87.0575 227.583 84.9961C227.569 82.4873 228.519 80.4605 228 78z"/>
<path style="fill:#474747; stroke:#474747;" d="M7 79L7 86L8 86C8.73282 83.0496 8.71216 81.5288 7 79M79 79L79 86L80 86C80.7328 83.0496 80.7121 81.5287 79 79z"/>
<path style="fill:#010101; stroke:#010101;" d="M174 79C174.071 82.3324 174.078 86.0747 176.514 88.6821C180.845 93.3188 189.392 91.0885 193 87C188.056 88.5836 180.941 92.2814 177.09 86.7716C175.492 84.4863 175.2 81.475 174 79M246 79C246.077 82.6495 246.578 85.6305 248 89L249 89C248.228 85.6239 247.506 82.108 246 79M57 82L57 83L64 82C61.4769 81.0098 59.6417 81.3831 57 82z"/>
<path style="fill:#595959; stroke:#595959;" d="M125 96L119 95L119 96L121.931 97.1852C126.116 100.663 123.483 104.813 122 109C125.597 105.826 125.958 102.652 126 98C129.908 98.9301 133.132 99.1407 137 98L137 97C134.786 97.2598 132.233 97.912 130.053 97.1682C125.156 95.4971 124.64 89.7774 127.576 86.1335C129.792 83.3848 132.681 82.5275 136 82C131.163 80.1175 126.027 82.9958 124.515 88.0046C123.681 90.7656 124.216 93.3418 125 96z"/>
<path style="fill:#474747; stroke:#474747;" d="M198 86C201.323 84.1028 204.199 82.601 208 82C203.734 80.3396 200.097 82.1037 198 86z"/>
<path style="fill:#414141; stroke:#414141;" d="M65 82C66.7756 86.6186 67.5194 90.0568 67 95L68 95L69 94L69 89L70 88L71 89C69.5948 85.7135 68.1553 83.7041 65 82M137 82C138.776 86.6187 139.519 90.0568 139 95L140 95L141 94L141 89L142 88L143 89C141.595 85.7136 140.155 83.7041 137 82M209 82C210.776 86.6186 211.519 90.0568 211 95L212 95L213 94L213 89L214 88L215 89C213.595 85.7136 212.155 83.7041 209 82z"/>
<path style="fill:#010101; stroke:#010101;" d="M6 86C3.88512 87.5731 2.53035 88.3518 0 89L0 90C3.0013 89.7733 6.08357 89.4765 6 86z"/>
<path style="fill:#595959; stroke:#595959;" d="M53 86C51.9422 89.5847 51.9422 92.4153 53 96L47 95L47 96L49.9313 97.1852C54.1158 100.663 51.4834 104.813 50 109C53.597 105.826 53.9579 102.652 54 98C57.9084 98.9301 61.132 99.1407 65 98L65 97C60.5485 97.5223 55.8277 98.1057 53.9321 92.9568L53 86z"/>
<path style="fill:#010101; stroke:#010101;" d="M78 86C75.5582 87.7753 73.9775 88.5679 71 89L71 90C74.162 89.8974 78.0911 89.8473 78 86M150 86C147.558 87.7752 145.977 88.5679 143 89L143 90C146.162 89.8974 150.091 89.8473 150 86z"/>
<path style="fill:#595959; stroke:#595959;" d="M197 86C195.942 89.5847 195.942 92.4153 197 96L191 95L191 96L193.931 97.1852C197.627 100.257 196.044 104.012 195 108L196 108C197.628 104.619 197.967 101.733 198 98C201.908 98.9301 205.132 99.1407 209 98L209 97C204.548 97.5223 199.828 98.1057 197.932 92.9568L197 86z"/>
<path style="fill:#010101; stroke:#010101;" d="M222 86C219.558 87.7752 217.977 88.5679 215 89L215 90C218.162 89.8974 222.091 89.8473 222 86M249 89L249 90C251.418 90.7224 253.472 90.9481 256 91L256 90L249 89z"/>
<path style="fill:#313131; stroke:#313131;" d="M0 98L1 98C3.19353 94.2309 5.82727 93.006 10 92C5.04218 90.2417 1.04282 93.1111 0 98z"/>
<path style="fill:#252525; stroke:#252525;" d="M14 92L14 93C17.847 94.1034 20.4038 93.729 24 92C20.7947 91.3114 17.3686 92.3321 14 92z"/>
<path style="fill:#2b2b2b; stroke:#2b2b2b;" d="M71 99L72 99C74.732 94.9338 77.232 93.1495 82 92C76.4342 90.0264 72.3816 93.8347 71 99z"/>
<path style="fill:#252525; stroke:#252525;" d="M86 92L86 93C89.847 94.1034 92.4038 93.729 96 92C92.7947 91.3114 89.3686 92.3321 86 92z"/>
<path style="fill:#2b2b2b; stroke:#2b2b2b;" d="M143 99L144 99C146.732 94.9337 149.232 93.1495 154 92C148.434 90.0264 144.382 93.8347 143 99M215 99L216 99C218.732 94.9337 221.232 93.1495 226 92C220.434 90.0264 216.382 93.8347 215 99z"/>
<path style="fill:#252525; stroke:#252525;" d="M230 92L230 93C233.847 94.1034 236.404 93.729 240 92C236.795 91.3114 233.369 92.3321 230 92z"/>
<path style="fill:#010101; stroke:#010101;" d="M24 94L24 95L31 94C28.4768 93.0098 26.6418 93.3831 24 94M96 94L96 95L103 94C100.477 93.0098 98.6418 93.3831 96 94M168 94L168 95L175 94C172.477 93.0098 170.642 93.3831 168 94M240 94L240 95L247 94C244.477 93.0098 242.642 93.3831 240 94M14 95C14.0006 100.08 13.4838 103.913 18 107C17.3163 104.039 17.3523 101.965 18 99L17 99C16.0143 100.479 16 100.203 16 102L15 102C14.9813 99.4567 14.9845 97.3315 14 95z"/>
<path style="fill:#494949; stroke:#494949;" d="M18 99L24 96C20.9394 95.1821 19.5357 96.3603 18 99z"/>
<path style="fill:#010101; stroke:#010101;" d="M86 95C86.0006 100.08 85.4838 103.913 90 107C89.3163 104.039 89.3523 101.965 90 99L89 99C88.0143 100.479 88 100.203 88 102L87 102C86.9813 99.4567 86.9845 97.3315 86 95z"/>
<path style="fill:#494949; stroke:#494949;" d="M90 99L96 96C92.9394 95.1821 91.5357 96.3603 90 99z"/>
<path style="fill:#010101; stroke:#010101;" d="M158 95C158.001 100.08 157.484 103.913 162 107C161.316 104.039 161.352 101.965 162 99L161 99C160.014 100.479 160 100.203 160 102L159 102C158.981 99.4567 158.985 97.3315 158 95z"/>
<path style="fill:#474747; stroke:#474747;" d="M162 99L168 96C164.939 95.182 163.536 96.3603 162 99z"/>
<path style="fill:#010101; stroke:#010101;" d="M230 95C230.001 100.08 229.484 103.913 234 107C233.316 104.039 233.352 101.965 234 99L233 99C232.014 100.479 232 100.203 232 102L231 102C230.981 99.4567 230.985 97.3315 230 95z"/>
<path style="fill:#474747; stroke:#474747;" d="M234 99L240 96C236.939 95.1821 235.536 96.3603 234 99z"/>
<path style="fill:#252525; stroke:#252525;" d="M184 110C183.342 108.402 182.44 106.774 182.576 104.975C182.803 101.991 185.403 99.3765 187 97C182.689 99.0604 178.435 103.425 181.586 108.39C182.146 109.272 183.173 109.516 184 110M34 98C33.6569 100.806 32.8448 103.305 32 106C34.5287 103.525 35.3604 101.371 34 98M106 98C105.657 100.806 104.845 103.305 104 106C106.529 103.524 107.36 101.371 106 98z"/>
<path style="fill:#515151; stroke:#515151;" d="M255 99C252.257 103.175 251.144 107.161 256 110C256 106.3 256.44 102.432 255 99z"/>
<path style="fill:#474747; stroke:#474747;" d="M131 105L132 105C133.658 103.078 134.741 102.105 137 101C133.513 99.87 132.156 101.852 131 105M203 105L204 105C205.658 103.078 206.741 102.105 209 101C205.513 99.87 204.156 101.852 203 105z"/>
<path style="fill:#1f1f1f; stroke:#1f1f1f;" d="M71 102C71.5637 104.953 72.645 107.316 74 110C77.3777 109.41 79.7457 110.011 83 111C83.1306 109.359 83.3693 108.544 84 107C81.812 107.269 79.2176 107.996 77.0525 107.308C74.4703 106.487 72.8265 103.839 71 102M143 102C143.531 104.69 144.116 106.02 146 108L146 109C144.365 109.545 144.545 109.365 144 111C148.212 109.732 150.788 109.732 155 111C155.131 109.359 155.369 108.544 156 107C153.812 107.269 151.218 107.996 149.052 107.308C146.47 106.487 144.827 103.839 143 102M215 102C215.531 104.69 216.116 106.02 218 108L218 109C216.365 109.545 216.545 109.365 216 111C220.212 109.732 222.788 109.732 227 111C227.131 109.359 227.369 108.544 228 107C225.812 107.269 223.218 107.996 221.052 107.308C218.47 106.487 216.827 103.839 215 102M0 103C0.302581 105.294 0.578496 106.212 2 108L2 109C0.364825 109.545 0.545061 109.365 0 111C4.21167 109.732 6.78833 109.732 11 111C11.1306 109.36 11.3693 108.544 12 107C6.39648 107.688 3.78761 107.416 0 103z"/>
<path style="fill:#252525; stroke:#252525;" d="M58 105C58.2297 108.198 58.7038 109.766 61 112C60.1982 109.518 59.3334 107.237 58 105M130 105C130.23 108.198 130.704 109.766 133 112C132.198 109.518 131.333 107.237 130 105M202 105C202.23 108.198 202.704 109.766 205 112C204.198 109.518 203.333 107.237 202 105z"/>
<path style="fill:#010101; stroke:#010101;" d="M18 107C22.2844 111.374 27.1298 109.728 32 107C29.1018 106.515 26.9146 108.213 24.0046 108.351C21.9571 108.448 19.9244 107.583 18 107M90 107C94.2844 111.374 99.1298 109.728 104 107C101.102 106.515 98.9146 108.213 96.0046 108.351C93.957 108.448 91.9244 107.583 90 107M162 107C166.284 111.374 171.13 109.728 176 107C173.102 106.515 170.915 108.213 168.005 108.351C165.957 108.448 163.924 107.583 162 107M234 107C238.284 111.374 243.13 109.728 248 107C245.102 106.515 242.915 108.213 240.005 108.351C237.957 108.448 235.924 107.583 234 107z"/>
<path style="fill:#ffffff; stroke:#ffffff;" d="M0 107L0 110L2 109L2 108L0 107z"/>
<path style="fill:#313131; stroke:#313131;" d="M40 110L40 111C41.8006 111.562 43.1219 111.824 45 112L45 113L43 113L43 114L54 112L54 111C51.7571 111 50.8072 111.084 49 110L50 109C46.4105 110.091 43.7326 110.585 40 110M68 109L64 112L64 113C66.5255 112.259 68.0846 111.756 68 109M112 110L112 111C113.801 111.562 115.122 111.824 117 112L117 113L115 113L115 114L126 112L126 111C123.757 111 122.807 111.084 121 110L122 109C118.41 110.091 115.733 110.585 112 110M140 109L136 112L136 113C138.526 112.259 140.085 111.756 140 109z"/>
<path style="fill:#010101; stroke:#010101;" d="M184 110L184 111C185.801 111.562 187.122 111.824 189 112L189 113L187 113L187 114L198 112L198 111C195.757 111 194.807 111.084 193 110L194 109C190.41 110.091 187.733 110.585 184 110z"/>
<path style="fill:#313131; stroke:#313131;" d="M212 109L208 112L208 113C210.526 112.259 212.085 111.756 212 109z"/>
<path style="fill:#252525; stroke:#252525;" d="M33 127L33 126L30 126C32.4662 123.905 35.1903 121.51 35.4576 118.015C35.8184 113.296 29.9831 110.813 26.0039 111.746C20.7334 112.981 16.5775 120.041 21.4336 124.262C24.3315 126.78 29.3711 126.844 33 127z"/>
<path style="fill:#313131; stroke:#313131;" d="M105 127L105 126L102 126C104.466 123.905 107.19 121.51 107.458 118.015C107.818 113.296 101.983 110.813 98.0039 111.746C92.7334 112.981 88.5775 120.041 93.4336 124.262C96.3315 126.78 101.371 126.844 105 127z"/>
<path style="fill:#010101; stroke:#010101;" d="M13 113C13.5186 117.195 13.5186 120.805 13 125L14 125C15.2356 120.818 15.5274 116.699 13 113z"/>
<path style="fill:#ffffff; stroke:#ffffff;" d="M24.1127 114.029C17.1568 117.956 22.9518 127.57 29.8951 123.817C30.7968 123.33 31.7388 122.612 32.3426 121.772C33.3102 120.425 34.2769 118.853 34.0023 117.108C33.3504 112.966 27.1023 112.341 24.1127 114.029z"/>
<path style="fill:#010101; stroke:#010101;" d="M85 113L86 123L87 123C86.9894 119.304 87.124 116.109 85 113z"/>
<path style="fill:#ffffff; stroke:#ffffff;" d="M96.1481 114.029C89.535 117.903 94.9239 127.585 101.895 123.817C102.797 123.33 103.739 122.612 104.343 121.772C105.31 120.425 106.277 118.853 106.002 117.108C105.358 113.014 99.1145 112.291 96.1481 114.029z"/>
<path style="fill:#252525; stroke:#252525;" d="M141 113C140.043 114.517 139.613 115.339 139 117C140.63 115.485 141.163 115.145 141 113z"/>
<path style="fill:#010101; stroke:#010101;" d="M157 113L158 123L159 123C158.989 119.304 159.124 116.109 157 113z"/>
<path style="fill:#313131; stroke:#313131;" d="M172 126L172 127C167.488 128.441 161.627 131.483 161.548 136.976C161.521 138.808 162.323 140.361 163 142L164 142C163.645 140.299 162.873 138.178 163.256 136.424C164.424 131.068 172.202 127.638 177 127L177 126C175.31 125.718 175.389 126.389 174 125L175 124C171.07 124.635 165.135 124.641 165.448 118.989C165.567 116.833 166.997 114.826 168 113C163.941 115.13 161.078 120.514 165.432 124.258C167.294 125.859 169.696 125.874 172 126z"/>
<path style="fill:#252525; stroke:#252525;" d="M213 113C212.043 114.517 211.613 115.339 211 117C212.63 115.485 213.163 115.145 213 113z"/>
<path style="fill:#010101; stroke:#010101;" d="M229 113L230 123L231 123C230.989 119.304 231.124 116.109 229 113z"/>
<path style="fill:#313131; stroke:#313131;" d="M249 127L249 126C244.463 125.414 236.223 124.553 237.603 118.021C237.98 116.237 239.138 114.569 240 113C235.582 115.319 232.976 121.465 238.228 124.836C241.221 126.756 245.563 126.852 249 127z"/>
<path style="fill:#1f1f1f; stroke:#1f1f1f;" d="M112 116L111.237 120.041C111.387 126.908 117.633 126.985 123 127C122.043 128.517 121.613 129.339 121 131C124.36 128.884 127.752 126.255 131.975 126.974C133.77 127.279 135.385 128.221 137 129C136.491 128.128 136.282 127.179 135.39 126.582C132.771 124.828 129.09 124.37 126 124.684C122.567 125.032 119.461 126.431 116.123 124.693C112.482 122.796 113.333 119.21 112 116M184 116L183.237 120.041C183.387 126.908 189.633 126.985 195 127C194.043 128.517 193.613 129.339 193 131C196.36 128.884 199.752 126.255 203.975 126.974C205.77 127.279 207.385 128.221 209 129C208.491 128.128 208.282 127.179 207.39 126.582C204.771 124.828 201.09 124.37 198 124.684C194.567 125.032 191.461 126.431 188.123 124.693C184.482 122.796 185.333 119.21 184 116z"/>
<path style="fill:#030303; stroke:#030303;" d="M255 118L255 124L256 124C255.953 121.747 255.874 120.052 255 118z"/>
<path style="fill:#090909; stroke:#090909;" d="M66 121C66.5036 123.146 67.1194 124.979 68 127L69 127C68.3447 124.463 67.7244 122.953 66 121M138 121C138.504 123.146 139.119 124.979 140 127L141 127C140.345 124.463 139.724 122.953 138 121M210 121C210.504 123.146 211.119 124.979 212 127L213 127C212.345 124.463 211.724 122.953 210 121z"/>
<path style="fill:#393939; stroke:#393939;" d="M0 129L0 130C5.39715 129.952 9.36747 129.223 13 125C8.57117 126.584 4.76024 128.581 0 129M71 129L71 130C76.7274 129.984 81.0989 129.535 85 125C80.1951 126.719 76.1984 128.762 71 129z"/>
<path style="fill:#1f1f1f; stroke:#1f1f1f;" d="M143 129L143 130C148.727 129.984 153.099 129.535 157 125C152.195 126.719 148.198 128.762 143 129M215 129L215 130C220.727 129.984 225.099 129.535 229 125C224.195 126.719 220.198 128.762 215 129z"/>
<path style="fill:#393939; stroke:#393939;" d="M239 129L239 130C240.875 129.453 242.255 128.89 244 128C241.86 127.59 241.038 128.032 239 129z"/>
<path style="fill:#252525; stroke:#252525;" d="M65 129C64.7963 132.201 63.9527 134.949 63 138C65.7462 135.311 66.5021 132.622 65 129z"/>
<path style="fill:#090909; stroke:#090909;" d="M19 142L20 142C19.6393 140.272 18.9031 138.205 19.2515 136.421C19.707 134.09 21.7303 131.939 23 130C17.5528 132.688 16.7703 136.6 19 142z"/>
<path style="fill:#313131; stroke:#313131;" d="M91 142L92 142C91.6393 140.272 90.9031 138.205 91.2515 136.421C91.707 134.09 93.7303 131.939 95 130C89.5528 132.688 88.7703 136.6 91 142M235 142L236 142C235.639 140.272 234.903 138.205 235.252 136.421C235.707 134.09 237.73 131.939 239 130C233.553 132.688 232.77 136.6 235 142z"/>
<path style="fill:#252525; stroke:#252525;" d="M38 131C38.0129 132.772 38.0639 134.313 37.4637 136.021C34.5583 144.289 26.9686 143.418 20 142L20 143C24.2684 145.054 29.4453 145.855 33.8951 143.566C38.3706 141.264 40.9928 135.132 38 131M110 131C110.013 132.772 110.064 134.313 109.464 136.021C106.558 144.289 98.9686 143.418 92 142L92 143C96.2684 145.054 101.445 145.855 105.895 143.566C110.371 141.264 112.993 135.132 110 131z"/>
<path style="fill:#313131; stroke:#313131;" d="M120 131C118.423 134.495 118.256 136.227 121 139L120 131z"/>
<path style="fill:#3f3f3f; stroke:#3f3f3f;" d="M142 143C139.95 141.602 138.354 140.749 136 140L136 141C139.43 144.049 139.851 145.797 138 150C140.85 148.444 141.503 147.207 142 144L144 145C144.362 140.2 146.563 136.649 150.911 134.253C154.591 132.225 158.473 134.756 158.317 138.991C158.256 140.653 157.476 142.429 157 144C160.918 140.163 161.138 132.051 153.995 131.619C147.886 131.249 143.061 137.744 142 143z"/>
<path style="fill:#252525; stroke:#252525;" d="M182 131C182.013 132.772 182.064 134.313 181.464 136.021C178.558 144.289 170.969 143.418 164 142L164 143C168.268 145.054 173.445 145.855 177.895 143.566C182.371 141.264 184.993 135.132 182 131z"/>
<path style="fill:#313131; stroke:#313131;" d="M192 131C190.423 134.495 190.256 136.227 193 139L192 131z"/>
<path style="fill:#010101; stroke:#010101;" d="M254 131C254.013 132.772 254.064 134.313 253.464 136.021C250.558 144.289 242.969 143.418 236 142L236 143C240.268 145.054 245.445 145.855 249.895 143.566C254.371 141.264 256.993 135.132 254 131z"/>
<path style="fill:#3f3f3f; stroke:#3f3f3f;" d="M70 143C67.9495 141.602 66.3541 140.749 64 140L64 141C67.6196 144.103 68.0832 145.719 66 150C68.8496 148.444 69.5031 147.207 70 144L72 145C72.3434 140.438 74.5058 137.712 77 134C72.8722 135.973 70.9057 138.514 70 143z"/>
<path style="fill:#595959; stroke:#595959;" d="M214 143C211.95 141.602 210.354 140.749 208 140L208 141C211.43 144.049 211.851 145.797 210 150C212.85 148.444 213.503 147.207 214 144L216 145C216.343 140.438 218.506 137.712 221 134C216.872 135.973 214.906 138.514 214 143z"/>
<path style="fill:#010101; stroke:#010101;" d="M49 139C49.6474 140.001 49.6898 141.002 51 141.5C54.1948 142.714 57.2957 140.972 60 143L64 139C60.6471 138.604 58.2856 140.196 55.0046 140.351C52.957 140.448 50.9245 139.583 49 139z"/>
<path style="fill:#0b0b0b; stroke:#0b0b0b;" d="M121 139C124.062 142.127 126.89 142.2 131 141C130.029 145.127 129.261 150.983 134.883 151.691C135.907 151.82 137.099 151.239 138 151L138 150L134.949 149.977C128.961 147.584 132.825 141.872 136 139C132.647 138.604 130.286 140.196 127.005 140.351C124.957 140.448 122.925 139.583 121 139M193 139C196.062 142.127 198.89 142.2 203 141C202.029 145.127 201.261 150.983 206.883 151.691C207.907 151.82 209.099 151.239 210 151L210 150L206.949 149.977C200.961 147.584 204.825 141.872 208 139C204.647 138.604 202.286 140.196 199.005 140.351C196.957 140.448 194.924 139.583 193 139z"/>
<path style="fill:#ffffff; stroke:#ffffff;" d="M133.513 141.161C129.284 143.414 131.61 152.303 136.953 149.762C138.703 148.93 140.245 147.125 139.94 145.079C139.564 142.559 136.008 139.833 133.513 141.161M205.513 141.161C201.284 143.414 203.61 152.303 208.953 149.762C210.703 148.93 212.245 147.125 211.94 145.079C211.564 142.559 208.008 139.833 205.513 141.161z"/>
<path style="fill:#010101; stroke:#010101;" d="M39 142L39 143L44 143C42.231 142.221 40.9641 142.088 39 142M111 142L111 143L116 143C114.231 142.221 112.964 142.088 111 142M183 142L183 143L188 143C186.231 142.221 184.964 142.088 183 142z"/>
<path style="fill:#313131; stroke:#313131;" d="M58 144C58.1977 147.599 58.6391 151.156 62.8835 151.691C63.9067 151.82 65.0995 151.239 66 151L66 150C61.1811 150.155 60.223 147.825 58 144z"/>
<path style="fill:#010101; stroke:#010101;" d="M1 146L1 147C5.34103 148.28 8.73616 148.333 12 145C8.02275 146.23 5.13283 146.722 1 146z"/>
<path style="fill:#595959; stroke:#595959;" d="M13 150C15.1506 148.881 17.5258 147.219 20.0008 146.992C23.9462 146.63 27.289 150.144 27.2662 154.001C27.2505 156.668 25.7232 159.458 25 162C28.2503 158.743 30.3705 153.579 27.821 149.133C24.3573 143.094 15.9737 144.778 13 150z"/>
<path style="fill:#010101; stroke:#010101;" d="M73 146L73 147C77.341 148.28 80.7362 148.333 84 145C80.0228 146.23 77.1328 146.722 73 146z"/>
<path style="fill:#595959; stroke:#595959;" d="M85 150C87.1506 148.881 89.5258 147.219 92.0008 146.992C98.1895 146.425 100.443 153.283 98.1458 157.985C95.634 163.125 91.3437 164.522 86 164C95.8532 171.425 106.947 152.596 96.8912 146.319C95.7465 145.604 94.308 145.417 92.9992 145.294C91.6857 145.171 90.2646 145.515 89.0586 146.008C86.9222 146.883 86.077 148.109 85 150z"/>
<path style="fill:#010101; stroke:#010101;" d="M145 146L145 147C149.341 148.28 152.736 148.333 156 145C152.023 146.23 149.133 146.722 145 146z"/>
<path style="fill:#090909; stroke:#090909;" d="M157 150C159.978 148.44 162.77 146.949 166 146C162.069 144.641 158.966 146.548 157 150z"/>
<path style="fill:#010101; stroke:#010101;" d="M217 146L217 147C221.341 148.28 224.736 148.333 228 145C224.023 146.23 221.133 146.722 217 146z"/>
<path style="fill:#090909; stroke:#090909;" d="M229 150C231.978 148.44 234.77 146.949 238 146C234.069 144.641 230.966 146.548 229 150z"/>
<path style="fill:#010101; stroke:#010101;" d="M49 147C49.4401 150.56 50.4693 154.503 48.1412 157.657C45.2127 161.624 37.3221 163.528 33.7029 159.566C31.5852 157.248 31.2609 153.966 31 151L30 151C30.0714 154.332 30.0784 158.075 32.5139 160.682C36.567 165.021 46.1557 163.452 49.3966 158.891C51.908 155.357 51.2879 150.349 49 147M121 147L122 157L123 157C122.989 153.304 123.124 150.109 121 147M193 147L194 157L195 157C194.989 153.304 195.124 150.109 193 147M0 149L0 150L7 150C4.66845 149.015 2.54334 149.019 0 149M69 154L70 154C72.7822 150.911 74.8735 150.133 79 150C74.4212 148.083 70.7213 149.318 69 154M141 154L142 154C144.782 150.911 146.873 150.133 151 150C146.421 148.083 142.721 149.318 141 154M213 154L214 154C216.782 150.911 218.873 150.133 223 150C218.421 148.083 214.721 149.318 213 154M12 150C9.98796 154.768 9.05333 159.134 13 163C12.4091 161.054 11.5953 159.058 11.5833 156.996C11.5688 154.487 12.5193 152.461 12 150z"/>
<path style="fill:#111111; stroke:#111111;" d="M84 150C81.7492 154.677 81.0839 159.165 85 163C84.4091 161.054 83.5953 159.057 83.5833 156.996C83.5688 154.487 84.5193 152.461 84 150M156 150C153.749 154.677 153.084 159.165 157 163C156.409 161.054 155.595 159.058 155.583 156.996C155.569 154.487 156.519 152.461 156 150M228 150C225.749 154.677 225.084 159.165 229 163C228.409 161.054 227.595 159.058 227.583 156.996C227.569 154.487 228.519 152.46 228 150z"/>
<path style="fill:#474747; stroke:#474747;" d="M7 151L7 158L8 158C8.73281 155.05 8.71215 153.529 7 151z"/>
<path style="fill:#010101; stroke:#010101;" d="M102 151C102.071 154.332 102.078 158.075 104.514 160.682C108.845 165.319 117.392 163.088 121 159C116.056 160.584 108.941 164.281 105.09 158.772C103.492 156.486 103.2 153.475 102 151M174 151C174.071 154.332 174.078 158.075 176.514 160.682C180.845 165.319 189.392 163.088 193 159C188.056 160.584 180.941 164.281 177.09 158.772C175.492 156.486 175.2 153.475 174 151M246 151C246.077 154.649 246.578 157.63 248 161L249 161C248.228 157.624 247.506 154.108 246 151M57 154L57 155L64 154C61.4768 153.01 59.6417 153.383 57 154z"/>
<path style="fill:#474747; stroke:#474747;" d="M126 158C129.323 156.103 132.199 154.601 136 154C131.734 152.34 128.097 154.104 126 158z"/>
<path style="fill:#252525; stroke:#252525;" d="M198 158C201.323 156.103 204.199 154.601 208 154C203.734 152.34 200.097 154.104 198 158z"/>
<path style="fill:#414141; stroke:#414141;" d="M65 154C66.7756 158.619 67.5194 162.057 67 167L68 167L69 166L69 161L70 160L71 161C69.5948 157.714 68.1552 155.704 65 154M137 154C138.776 158.619 139.519 162.057 139 167L140 167L141 166L141 161L142 160L143 161C141.595 157.714 140.155 155.704 137 154M209 154C210.776 158.619 211.519 162.057 211 167L212 167L213 166L213 161L214 160L215 161C213.595 157.714 212.155 155.704 209 154z"/>
<path style="fill:#010101; stroke:#010101;" d="M6 158C3.88513 159.573 2.53034 160.352 0 161L0 162C3.00131 161.773 6.08357 161.477 6 158z"/>
<path style="fill:#595959; stroke:#595959;" d="M53 158C51.9422 161.585 51.9422 164.415 53 168L47 167L47 168L49.9313 169.185C54.1158 172.663 51.4834 176.813 50 181C53.597 177.826 53.9579 174.652 54 170C57.9084 170.93 61.132 171.141 65 170L65 169C60.5485 169.522 55.8276 170.106 53.9321 164.957L53 158z"/>
<path style="fill:#010101; stroke:#010101;" d="M78 158C75.5582 159.775 73.9775 160.568 71 161L71 162C74.162 161.897 78.0911 161.847 78 158z"/>
<path style="fill:#595959; stroke:#595959;" d="M125 158C123.942 161.585 123.942 164.415 125 168L119 167L119 168L121.931 169.185C125.627 172.257 124.044 176.011 123 180L124 180C125.628 176.619 125.967 173.733 126 170C129.908 170.93 133.132 171.141 137 170L137 169C132.548 169.522 127.828 170.106 125.932 164.957L125 158z"/>
<path style="fill:#010101; stroke:#010101;" d="M150 158C147.558 159.775 145.977 160.568 143 161L143 162C146.162 161.897 150.091 161.847 150 158z"/>
<path style="fill:#595959; stroke:#595959;" d="M197 158C195.942 161.585 195.942 164.415 197 168L191 167L191 168L193.931 169.185C197.627 172.257 196.044 176.012 195 180L196 180C197.628 176.619 197.967 173.733 198 170C201.908 170.93 205.132 171.141 209 170L209 169C204.549 169.522 199.828 170.106 197.932 164.957L197 158z"/>
<path style="fill:#010101; stroke:#010101;" d="M222 158C219.558 159.775 217.977 160.568 215 161L215 162C218.162 161.897 222.091 161.847 222 158M249 161L249 162C251.418 162.722 253.472 162.948 256 163L256 162L249 161z"/>
<path style="fill:#313131; stroke:#313131;" d="M0 170L1 170C3.19352 166.231 5.82729 165.006 10 164C5.04218 162.242 1.04282 165.111 0 170z"/>
<path style="fill:#252525; stroke:#252525;" d="M14 164L14 165C17.847 166.103 20.4038 165.729 24 164C20.7947 163.311 17.3686 164.332 14 164z"/>
<path style="fill:#2b2b2b; stroke:#2b2b2b;" d="M71 171L72 171C74.732 166.934 77.232 165.15 82 164C76.4342 162.026 72.3816 165.835 71 171M143 171L144 171C146.732 166.934 149.232 165.15 154 164C148.434 162.026 144.382 165.835 143 171z"/>
<path style="fill:#252525; stroke:#252525;" d="M158 164L158 165C161.847 166.103 164.404 165.729 168 164C164.795 163.311 161.369 164.332 158 164z"/>
<path style="fill:#2b2b2b; stroke:#2b2b2b;" d="M215 171L216 171C218.732 166.934 221.232 165.15 226 164C220.434 162.026 216.382 165.835 215 171z"/>
<path style="fill:#252525; stroke:#252525;" d="M230 164L230 165C233.847 166.103 236.404 165.729 240 164C236.795 163.311 233.369 164.332 230 164z"/>
<path style="fill:#010101; stroke:#010101;" d="M24 166L24 167L31 166C28.4768 165.01 26.6418 165.383 24 166M96 166L96 167L103 166C100.477 165.01 98.6418 165.383 96 166M168 166L168 167L175 166C172.477 165.01 170.642 165.383 168 166z"/>
<path style="fill:#151515; stroke:#151515;" d="M234 171C238.234 168.834 242.285 166.812 247 166C242.175 164.121 236.482 166.638 234 171z"/>
<path style="fill:#010101; stroke:#010101;" d="M14 167C14.0006 172.08 13.4838 175.913 18 179C17.3163 176.039 17.3523 173.965 18 171L17 171C16.0143 172.479 16 172.203 16 174L15 174C14.9813 171.457 14.9845 169.332 14 167z"/>
<path style="fill:#494949; stroke:#494949;" d="M18 171L24 168C20.9394 167.182 19.5357 168.36 18 171z"/>
<path style="fill:#010101; stroke:#010101;" d="M86 167C86.0006 172.08 85.4838 175.913 90 179C89.3163 176.039 89.3523 173.965 90 171L89 171C88.0143 172.479 88 172.203 88 174L87 174C86.9813 171.457 86.9845 169.332 86 167z"/>
<path style="fill:#474747; stroke:#474747;" d="M90 171L96 168C92.9394 167.182 91.5357 168.36 90 171z"/>
<path style="fill:#010101; stroke:#010101;" d="M158 167C158.001 172.08 157.484 175.913 162 179C161.316 176.039 161.352 173.965 162 171L161 171C160.014 172.479 160 172.203 160 174L159 174C158.981 171.457 158.985 169.332 158 167z"/>
<path style="fill:#474747; stroke:#474747;" d="M162 171L168 168C164.939 167.182 163.536 168.36 162 171z"/>
<path style="fill:#010101; stroke:#010101;" d="M230 167C230.001 172.08 229.484 175.913 234 179C233.316 176.039 233.352 173.965 234 171L233 171C232.014 172.478 232 172.203 232 174L231 174C230.981 171.457 230.985 169.332 230 167z"/>
<path style="fill:#252525; stroke:#252525;" d="M112 182C111.342 180.402 110.44 178.774 110.576 176.975C110.803 173.991 113.403 171.377 115 169C110.688 171.06 106.435 175.425 109.586 180.39C110.146 181.272 111.173 181.516 112 182M184 182C183.342 180.402 182.44 178.774 182.576 176.975C182.803 173.991 185.403 171.377 187 169C182.688 171.06 178.435 175.425 181.586 180.39C182.146 181.272 183.173 181.516 184 182M34 170C33.6569 172.806 32.8448 175.305 32 178C34.5287 175.525 35.3604 173.371 34 170z"/>
<path style="fill:#515151; stroke:#515151;" d="M255 171C252.257 175.175 251.144 179.161 256 182C256 178.3 256.44 174.432 255 171z"/>
<path style="fill:#474747; stroke:#474747;" d="M131 177L132 177C133.658 175.078 134.741 174.105 137 173C133.513 171.87 132.156 173.852 131 177M203 177L204 177C205.658 175.078 206.741 174.105 209 173C205.513 171.87 204.156 173.852 203 177z"/>
<path style="fill:#1f1f1f; stroke:#1f1f1f;" d="M71 174C71.5307 176.69 72.1158 178.02 74 180L74 181C72.3648 181.545 72.5451 181.365 72 183C76.2117 181.732 78.7883 181.732 83 183C83.1306 181.359 83.3693 180.544 84 179C81.812 179.269 79.2176 179.996 77.0525 179.308C74.4703 178.487 72.8265 175.839 71 174M143 174C143.531 176.69 144.116 178.02 146 180L146 181C144.365 181.545 144.545 181.365 144 183C148.212 181.732 150.788 181.732 155 183C155.131 181.359 155.369 180.544 156 179C153.812 179.269 151.218 179.996 149.052 179.308C146.47 178.487 144.827 175.839 143 174M215 174C215.531 176.69 216.116 178.02 218 180L218 181C216.365 181.545 216.545 181.365 216 183C220.212 181.732 222.788 181.732 227 183C227.131 181.359 227.369 180.544 228 179C225.812 179.269 223.218 179.996 221.052 179.308C218.47 178.487 216.826 175.839 215 174M0 175C0.302579 177.294 0.578496 178.212 2 180L2 181C0.364833 181.545 0.545057 181.365 0 183C4.21168 181.732 6.78832 181.732 11 183C11.1306 181.359 11.3693 180.544 12 179C6.39649 179.688 3.7876 179.416 0 175z"/>
<path style="fill:#252525; stroke:#252525;" d="M58 177C58.2297 180.198 58.7038 181.766 61 184C60.1982 181.518 59.3334 179.237 58 177M130 177C130.23 180.198 130.704 181.766 133 184C132.198 181.518 131.333 179.237 130 177M202 177C202.23 180.198 202.704 181.766 205 184C204.198 181.518 203.333 179.237 202 177z"/>
<path style="fill:#010101; stroke:#010101;" d="M18 179C22.2844 183.374 27.1298 181.728 32 179C29.1018 178.515 26.9146 180.213 24.0046 180.351C21.9571 180.448 19.9244 179.583 18 179M90 179C94.2844 183.374 99.1298 181.728 104 179C101.102 178.515 98.9146 180.213 96.0046 180.351C93.957 180.448 91.9244 179.583 90 179M162 179C166.284 183.374 171.13 181.728 176 179C173.102 178.515 170.915 180.213 168.005 180.351C165.957 180.448 163.924 179.583 162 179M234 179C238.284 183.374 243.13 181.728 248 179C245.102 178.515 242.915 180.213 240.005 180.351C237.957 180.448 235.924 179.583 234 179z"/>
<path style="fill:#ffffff; stroke:#ffffff;" d="M0 179L0 182L2 181L2 180L0 179z"/>
<path style="fill:#1f1f1f; stroke:#1f1f1f;" d="M40 182L40 183C41.8006 183.562 43.1218 183.824 45 184L45 185L43 185L43 186L50.0015 184.774L52.9807 184.916C53.9309 185.27 54.9779 185.648 55.6667 186.448C62.4592 194.338 44.2894 203.021 41.1667 193.374C40.6409 191.75 40.9672 189.672 41 188L40 188L39.2369 192.041C39.3871 198.908 45.6327 198.985 51 199C50.0427 200.517 49.6128 201.339 49 203C51.495 201.429 54.0067 199.437 57 198.971C60.863 198.369 64.6583 200.8 64.3974 204.979C64.2938 206.639 63.4849 208.428 63 210C66.1978 206.868 67.5297 200.968 62.8534 198.179C60.7962 196.952 58.3 197.056 56 197C58.3826 194.141 59 192.818 59 189L59 186C57.0491 182.423 53.3156 183.474 50 183L49 182L50 181C46.4105 182.091 43.7326 182.585 40 182z"/>
<path style="fill:#313131; stroke:#313131;" d="M68 181L64 184L64 185C66.5256 184.259 68.0846 183.756 68 181z"/>
<path style="fill:#050505; stroke:#050505;" d="M112 182L112 183C113.801 183.562 115.122 183.824 117 184L117 185L115 185L115 186L126 184L126 183C123.757 183 122.807 183.084 121 182L122 181C118.41 182.091 115.733 182.585 112 182z"/>
<path style="fill:#313131; stroke:#313131;" d="M140 181L136 184L136 185C138.526 184.259 140.085 183.756 140 181z"/>
<path style="fill:#030303; stroke:#030303;" d="M184 182L184 183C185.801 183.562 187.122 183.824 189 184L189 185L187 185L187 186L198 184L198 183C195.757 183 194.807 183.084 193 182L194 181C190.41 182.091 187.733 182.585 184 182z"/>
<path style="fill:#1f1f1f; stroke:#1f1f1f;" d="M24 184L24 185C27.4554 185.084 32.8037 185.264 33.6644 189.595C33.9407 190.985 33.3023 192.674 33 194C33.6744 193.276 34.6027 192.679 34.956 191.68C37.4254 184.695 29.0152 183.036 24 184z"/>
<path style="fill:#010101; stroke:#010101;" d="M13 185C13.3154 189.142 13.4891 192.859 13 197L14 197C15.2282 192.845 15.7033 188.568 13 185z"/>
<path style="fill:#313131; stroke:#313131;" d="M33 199L33 198C31.3101 197.718 31.3893 198.389 30 197L31 196C27.0703 196.635 21.1348 196.641 21.4475 190.989C21.5668 188.833 22.9967 186.826 24 185C19.5819 187.319 16.9758 193.465 22.2284 196.836C25.2212 198.756 29.5633 198.852 33 199z"/>
<path style="fill:#252525; stroke:#252525;" d="M69 185C68.0427 186.517 67.6128 187.339 67 189C68.63 187.485 69.1631 187.145 69 185z"/>
<path style="fill:#010101; stroke:#010101;" d="M85 185L86 195L87 195C86.9894 191.304 87.124 188.109 85 185z"/>
<path style="fill:#313131; stroke:#313131;" d="M105 199L105 198C100.463 197.414 92.2228 196.553 93.6034 190.021C93.9804 188.237 95.1379 186.569 96 185C91.5819 187.319 88.9758 193.465 94.2284 196.836C97.2212 198.756 101.563 198.852 105 199z"/>
<path style="fill:#252525; stroke:#252525;" d="M141 185C140.043 186.517 139.613 187.339 139 189C140.63 187.485 141.163 187.145 141 185z"/>
<path style="fill:#010101; stroke:#010101;" d="M157 185L158 195L159 195C158.989 191.304 159.124 188.109 157 185z"/>
<path style="fill:#313131; stroke:#313131;" d="M177 199L177 198C172.463 197.414 164.223 196.553 165.603 190.021C165.98 188.237 167.138 186.569 168 185C163.582 187.319 160.976 193.465 166.228 196.836C169.221 198.756 173.563 198.852 177 199z"/>
<path style="fill:#252525; stroke:#252525;" d="M213 185C212.043 186.517 211.613 187.339 211 189C212.63 187.485 213.163 187.145 213 185z"/>
<path style="fill:#010101; stroke:#010101;" d="M229 185L230 195L231 195C230.989 191.304 231.124 188.109 229 185z"/>
<path style="fill:#313131; stroke:#313131;" d="M249 199L249 198C244.463 197.414 236.223 196.553 237.603 190.021C237.98 188.237 239.138 186.569 240 185C235.582 187.319 232.976 193.465 238.228 196.836C241.221 198.756 245.563 198.852 249 199z"/>
<path style="fill:#474747; stroke:#474747;" d="M112 188L111.237 192.041C111.387 198.908 117.633 198.985 123 199C122.043 200.517 121.613 201.339 121 203C124.978 200.495 128.376 198.913 133 198L133 197C130.687 196.837 128.316 196.443 125.998 196.684C121.851 197.114 117.009 199 113.912 194.891C112.488 193.002 112.89 190.142 112 188M184 188L183.237 192.041C183.387 198.908 189.633 198.985 195 199C194.043 200.517 193.613 201.339 193 203C196.978 200.495 200.376 198.913 205 198L205 197C202.687 196.837 200.316 196.443 197.998 196.684C193.851 197.114 189.009 199 185.912 194.891C184.488 193.002 184.89 190.142 184 188z"/>
<path style="fill:#030303; stroke:#030303;" d="M255 190L255 196L256 196C255.953 193.747 255.874 192.052 255 190z"/>
<path style="fill:#090909; stroke:#090909;" d="M66 193C66.5036 195.146 67.1194 196.979 68 199L69 199C68.3447 196.463 67.7244 194.953 66 193M138 193C138.504 195.146 139.119 196.979 140 199L141 199C140.345 196.463 139.724 194.953 138 193M210 193C210.504 195.146 211.119 196.979 212 199L213 199C212.345 196.463 211.724 194.953 210 193z"/>
<path style="fill:#393939; stroke:#393939;" d="M0 201L0 202C5.39714 201.952 9.36748 201.223 13 197C8.57117 198.584 4.76024 200.581 0 201z"/>
<path style="fill:#ffffff; stroke:#ffffff;" d="M57.9992 198.552C54.037 198.803 50.0453 201.18 48.5903 205.001C46.9903 209.203 50.9423 212.744 55.0039 212.654C58.5352 212.575 62.7201 210.199 64.1373 206.895C66.1071 202.303 62.7658 198.251 57.9992 198.552z"/>
<path style="fill:#393939; stroke:#393939;" d="M23 201L23 202C24.875 201.453 26.2553 200.89 28 200C25.8597 199.59 25.0375 200.032 23 201M33 199C34.2228 200.195 34.42 200.316 36 201C34.7772 199.805 34.58 199.684 33 199M95 201L95 202C96.875 201.453 98.2553 200.89 100 200C97.8597 199.59 97.0375 200.032 95 201M167 201L167 202C168.875 201.453 170.255 200.89 172 200C169.86 199.59 169.038 200.032 167 201M239 201L239 202C240.875 201.453 242.255 200.89 244 200C241.86 199.59 241.038 200.032 239 201z"/>
<path style="fill:#010101; stroke:#010101;" d="M71 201L71 202L78 202C75.6684 201.015 73.5433 201.019 71 201M143 201L143 202L150 202C147.668 201.015 145.543 201.019 143 201M215 201L215 202L222 202C219.668 201.015 217.543 201.019 215 201z"/>
<path style="fill:#313131; stroke:#313131;" d="M19 214L20 214C19.6393 212.272 18.9031 210.205 19.2515 208.421C19.707 206.09 21.7303 203.939 23 202C17.5528 204.688 16.7703 208.6 19 214M91 214L92 214C91.6393 212.272 90.9031 210.205 91.2515 208.421C91.707 206.09 93.7303 203.939 95 202C89.5528 204.688 88.7703 208.6 91 214M163 214L164 214C163.639 212.272 162.903 210.205 163.252 208.421C163.707 206.09 165.73 203.939 167 202C161.553 204.688 160.77 208.6 163 214M235 214L236 214C235.639 212.272 234.903 210.205 235.252 208.421C235.707 206.09 237.73 203.939 239 202C233.553 204.688 232.77 208.6 235 214z"/>
<path style="fill:#1f1f1f; stroke:#1f1f1f;" d="M5 205L5 206C9.03777 205.348 14.5144 205.376 14.3171 210.991C14.2588 212.651 13.4754 214.431 13 216C16.6693 212.407 17.4144 205.014 10.9853 203.676C8.69346 203.199 7.00332 204.079 5 205z"/>
<path style="fill:#252525; stroke:#252525;" d="M38 203C38.0393 204.511 38.1734 205.973 37.7446 207.448C35.2088 216.169 27.0882 215.443 20 214L20 215C24.358 216.839 29.4257 217.865 33.8951 215.566C38.3707 213.264 40.9927 207.132 38 203z"/>
<path style="fill:#313131; stroke:#313131;" d="M48 203C46.4229 206.495 46.2563 208.227 49 211L48 203M120 203C118.423 206.495 118.256 208.227 121 211L120 203M192 203C190.423 206.495 190.256 208.227 193 211L192 203z"/>
<path style="fill:#252525; stroke:#252525;" d="M0 211C2.13569 209.451 3.45108 208.136 5 206C2.31338 207.324 1.32407 208.313 0 211z"/>
<path style="fill:#1f1f1f; stroke:#1f1f1f;" d="M70 215C67.9495 213.602 66.3541 212.749 64 212L64 213C67.6196 216.103 68.0831 217.719 66 222C68.8496 220.444 69.5031 219.207 70 216L72 217C72.3434 212.438 74.5058 209.712 77 206C72.8722 207.973 70.9057 210.514 70 215z"/>
<path style="fill:#595959; stroke:#595959;" d="M142 215C139.95 213.602 138.354 212.749 136 212L136 213C139.43 216.049 139.851 217.797 138 222C140.85 220.444 141.503 219.207 142 216L144 217C144.343 212.438 146.506 209.712 149 206C144.872 207.973 142.906 210.514 142 215M214 215C211.95 213.602 210.354 212.749 208 212L208 213C211.43 216.049 211.851 217.797 210 222C212.85 220.444 213.503 219.207 214 216L216 217C216.343 212.438 218.506 209.712 221 206C216.872 207.973 214.906 210.514 214 215z"/>
<path style="fill:#0b0b0b; stroke:#0b0b0b;" d="M49 211C52.0623 214.127 54.8904 214.2 59 213C58.0292 217.127 57.2605 222.983 62.8835 223.691C63.9067 223.82 65.0995 223.239 66 223L66 222L62.9491 221.977C56.9606 219.584 60.8249 213.872 64 211C60.6471 210.604 58.2856 212.196 55.0046 212.351C52.957 212.448 50.9245 211.583 49 211z"/>
<path style="fill:#111111; stroke:#111111;" d="M130 212C130.209 215.945 129.217 220.957 133.068 223.396L136 224L136 223C135.093 222.523 133.968 222.259 133.289 221.39C130.106 217.316 132.809 213.886 136 211C133.685 210.93 132.221 211.26 130 212M202 212C202.209 215.945 201.217 220.957 205.068 223.396L208 224L208 223C207.093 222.523 205.968 222.259 205.289 221.39C202.106 217.316 204.809 213.886 208 211C205.685 210.93 204.221 211.26 202 212z"/>
<path style="fill:#010101; stroke:#010101;" d="M121 211C123.484 213.54 125.476 213.888 129 214L129 213C126.194 212.657 123.695 211.845 121 211M193 211C195.484 213.54 197.476 213.888 201 214L201 213C198.194 212.657 195.695 211.845 193 211z"/>
<path style="fill:#ffffff; stroke:#ffffff;" d="M61.5131 213.161C57.3208 215.394 59.608 224.354 64.9028 221.762C66.6191 220.922 68.0696 219.073 67.8241 217.079C67.5115 214.539 64.0164 211.828 61.5131 213.161z"/>
<path style="fill:#010101; stroke:#010101;" d="M39 214L39 215L44 215C42.231 214.221 40.9641 214.088 39 214M111 214L111 215L116 215C114.231 214.221 112.964 214.088 111 214M183 214L183 215L188 215C186.231 214.221 184.964 214.088 183 214z"/>
<path style="fill:#393939; stroke:#393939;" d="M44 215C45.2228 216.195 45.42 216.316 47 217C45.7772 215.805 45.58 215.684 44 215z"/>
<path style="fill:#010101; stroke:#010101;" d="M1 218L1 219C5.34103 220.28 8.73616 220.333 12 217C8.02276 218.23 5.13283 218.722 1 218z"/>
<path style="fill:#313131; stroke:#313131;" d="M13 222C15.1506 220.881 17.5258 219.219 20.0008 218.992C23.9462 218.631 27.289 222.144 27.2662 226.001C27.2505 228.668 25.7232 231.458 25 234C28.2503 230.743 30.3705 225.579 27.821 221.133C24.3573 215.094 15.9737 216.778 13 222z"/>
<path style="fill:#010101; stroke:#010101;" d="M73 218L73 219C77.341 220.28 80.7362 220.333 84 217C80.0228 218.23 77.1328 218.722 73 218z"/>
<path style="fill:#090909; stroke:#090909;" d="M85 222C87.9781 220.44 90.7696 218.949 94 218C90.0693 216.641 86.9661 218.548 85 222z"/>
<path style="fill:#010101; stroke:#010101;" d="M145 218L145 219C149.341 220.28 152.736 220.333 156 217C152.023 218.23 149.133 218.722 145 218z"/>
<path style="fill:#090909; stroke:#090909;" d="M157 222C159.978 220.44 162.77 218.949 166 218C162.069 216.641 158.966 218.548 157 222z"/>
<path style="fill:#010101; stroke:#010101;" d="M217 218L217 219C221.341 220.28 224.736 220.333 228 217C224.023 218.23 221.133 218.722 217 218z"/>
<path style="fill:#090909; stroke:#090909;" d="M229 222C231.978 220.44 234.77 218.949 238 218C234.069 216.64 230.966 218.548 229 222z"/>
<path style="fill:#010101; stroke:#010101;" d="M49 219C49.267 222.506 50.3942 226.563 48.1381 229.657C45.2315 233.642 37.3087 235.513 33.7029 231.566C31.5852 229.248 31.2609 225.966 31 223L30 223C30.0644 226.009 30.0406 229.275 31.858 231.852C33.8077 234.617 36.845 235.02 40 234.98C42.4406 234.949 44.868 234.661 46.9414 233.258C51.6292 230.084 52.2332 223.268 49 219M121 219L122 229L123 229C122.989 225.304 123.124 222.109 121 219M193 219L194 229L195 229C194.989 225.304 195.124 222.109 193 219z"/>
<path style="fill:#1f1f1f; stroke:#1f1f1f;" d="M0 221L0 222C5.13952 222.397 7.22226 224.848 7 230C8.91624 227.365 9.33352 223.322 5.72608 221.603C4.02425 220.792 1.82216 221.022 0 221z"/>
<path style="fill:#010101; stroke:#010101;" d="M69 226L70 226C72.7822 222.911 74.8735 222.133 79 222C74.4212 220.083 70.7213 221.318 69 226M141 226L142 226C144.782 222.911 146.873 222.133 151 222C146.421 220.083 142.721 221.318 141 226M213 226L214 226C216.782 222.911 218.873 222.133 223 222C218.421 220.083 214.721 221.318 213 226z"/>
<path style="fill:#111111; stroke:#111111;" d="M12 222C9.74915 226.677 9.08391 231.165 13 235C12.4091 233.054 11.5953 231.058 11.5833 228.996C11.5688 226.487 12.5193 224.461 12 222M84 222C81.7492 226.677 81.0839 231.165 85 235C84.4091 233.054 83.5953 231.058 83.5833 228.996C83.5688 226.487 84.5193 224.461 84 222M156 222C153.749 226.677 153.084 231.165 157 235C156.409 233.054 155.595 231.058 155.583 228.996C155.569 226.487 156.519 224.461 156 222M228 222C225.749 226.677 225.084 231.165 229 235C228.409 233.054 227.595 231.058 227.583 228.996C227.569 226.487 228.519 224.461 228 222z"/>
<path style="fill:#010101; stroke:#010101;" d="M102 223C102.071 226.332 102.078 230.075 104.514 232.682C108.845 237.319 117.392 235.088 121 231C116.007 232.661 109.027 236.407 105.09 230.772C103.492 228.486 103.2 225.475 102 223M174 223C174.071 226.332 174.078 230.075 176.514 232.682C180.845 237.319 189.392 235.088 193 231C188.007 232.661 181.027 236.407 177.09 230.772C175.492 228.486 175.2 225.475 174 223M246 223C246.077 226.649 246.578 229.63 248 233L249 233C248.228 229.624 247.506 226.108 246 223z"/>
<path style="fill:#030303; stroke:#030303;" d="M54 230C56.1236 228.789 58.4754 227.022 60.9861 226.796C67.7378 226.188 67.465 234.574 67 239L68 239L69 238L69 233L70 232L71 233C69.9706 230.591 68.8994 228.344 66.6952 226.741C62.1797 223.456 56.4152 225.513 54 230z"/>
<path style="fill:#090909; stroke:#090909;" d="M126 230C129.323 228.103 132.199 226.601 136 226C131.734 224.34 128.097 226.104 126 230M198 230C201.323 228.103 204.199 226.601 208 226C203.734 224.34 200.097 226.104 198 230z"/>
<path style="fill:#414141; stroke:#414141;" d="M137 226C138.776 230.619 139.519 234.057 139 239L140 239L141 238L141 233L142 232L143 233C141.595 229.714 140.155 227.704 137 226M209 226C210.776 230.619 211.519 234.057 211 239L212 239L213 238L213 233L214 232L215 233C213.595 229.714 212.155 227.704 209 226z"/>
<path style="fill:#010101; stroke:#010101;" d="M6 230C3.88513 231.573 2.53034 232.352 0 233L0 234C3.00131 233.773 6.08357 233.477 6 230z"/>
<path style="fill:#050505; stroke:#050505;" d="M53 230C51.9422 233.585 51.9422 236.415 53 240C49.4042 239.154 46.5958 239.154 43 240L43 241L47.9807 240.858C54.8917 241.941 51.4585 248.883 50 253C53.597 249.826 53.9579 246.652 54 242C57.9084 242.93 61.132 243.141 65 242L65 241C60.5485 241.522 55.8276 242.106 53.9321 236.957L53 230z"/>
<path style="fill:#010101; stroke:#010101;" d="M78 230C75.5582 231.775 73.9775 232.568 71 233L71 234C74.162 233.897 78.0911 233.847 78 230z"/>
<path style="fill:#595959; stroke:#595959;" d="M125 230C123.942 233.585 123.942 236.415 125 240C121.404 239.154 118.596 239.154 115 240L115 241C118.879 241.014 124.418 240.675 124.397 246.015C124.389 247.985 123.494 250.112 123 252L124 252C125.628 248.619 125.967 245.733 126 242C129.908 242.93 133.132 243.141 137 242L137 241C132.548 241.522 127.828 242.106 125.932 236.957L125 230z"/>
<path style="fill:#010101; stroke:#010101;" d="M150 230C147.558 231.775 145.977 232.568 143 233L143 234C146.162 233.897 150.091 233.847 150 230z"/>
<path style="fill:#595959; stroke:#595959;" d="M197 230C195.942 233.585 195.942 236.415 197 240C193.404 239.154 190.596 239.154 187 240L187 241C190.879 241.014 196.418 240.675 196.397 246.015C196.389 247.985 195.494 250.112 195 252L196 252C197.628 248.619 197.967 245.733 198 242C201.908 242.93 205.132 243.141 209 242L209 241C204.548 241.522 199.828 242.106 197.932 236.957L197 230z"/>
<path style="fill:#010101; stroke:#010101;" d="M222 230C219.558 231.775 217.977 232.568 215 233L215 234C218.162 233.897 222.091 233.847 222 230M249 233L249 234C251.418 234.722 253.472 234.948 256 235L256 234L249 233z"/>
<path style="fill:#090909; stroke:#090909;" d="M0 242L1 242C3.19353 238.231 5.82728 237.006 10 236C5.08772 234.258 0.813933 237.01 0 242z"/>
<path style="fill:#252525; stroke:#252525;" d="M14 236L14 237C17.847 238.103 20.4038 237.729 24 236C20.7947 235.311 17.3686 236.332 14 236z"/>
<path style="fill:#090909; stroke:#090909;" d="M71 243L72 243C74.732 238.934 77.232 237.15 82 236C76.4343 234.026 72.3816 237.835 71 243M143 243L144 243C146.732 238.934 149.232 237.15 154 236C148.434 234.026 144.382 237.835 143 243M215 243L216 243C218.732 238.934 221.232 237.15 226 236C220.434 234.026 216.382 237.835 215 243z"/>
<path style="fill:#393939; stroke:#393939;" d="M10 236C11.2228 237.195 11.42 237.316 13 238C11.7772 236.805 11.58 236.684 10 236z"/>
<path style="fill:#151515; stroke:#151515;" d="M18 243C22.2341 240.834 26.2853 238.812 31 238C26.1751 236.121 20.4823 238.638 18 243M90 243C94.2341 240.834 98.2853 238.812 103 238C98.1751 236.121 92.4823 238.638 90 243M162 243C166.234 240.834 170.285 238.812 175 238C170.175 236.121 164.482 238.638 162 243M234 243C238.234 240.834 242.285 238.812 247 238C242.175 236.121 236.482 238.638 234 243z"/>
<path style="fill:#ffffff; stroke:#ffffff;" d="M26.9606 238.668C23.4238 239.302 18.9869 241.532 17.5903 245.04C15.7364 249.697 20.784 253.162 25 252.555C28.468 252.055 32.5898 249.575 33.4282 245.957C34.3666 241.908 31.1102 237.925 26.9606 238.668z"/>
<path style="fill:#010101; stroke:#010101;" d="M31 238C32.8083 242.666 33.4656 245.12 32 250C36.1042 245.98 35.2452 241.536 31 238M14 239C14.0006 244.08 13.4838 247.913 18 251C17.3163 248.039 17.3523 245.965 18 243L17 243C16.0143 244.479 16 244.203 16 246L15 246C14.9813 243.457 14.9845 241.332 14 239M86 239C86.0006 244.08 85.4838 247.913 90 251C89.3163 248.039 89.3523 245.965 90 243L89 243C88.0143 244.479 88 244.203 88 246L87 246C86.9813 243.457 86.9845 241.332 86 239M158 239C158.001 244.08 157.484 247.913 162 251C161.316 248.039 161.352 245.965 162 243L161 243C160.014 244.479 160 244.203 160 246L159 246C158.981 243.457 158.985 241.332 158 239M230 239C230.001 244.08 229.484 247.913 234 251C233.316 248.039 233.352 245.965 234 243L233 243C232.014 244.478 232 244.203 232 246L231 246C230.981 243.457 230.985 241.332 230 239z"/>
<path style="fill:#252525; stroke:#252525;" d="M40 254C39.3416 252.402 38.4396 250.774 38.5764 248.975C38.8033 245.991 41.4033 243.377 43 241C38.6885 243.06 34.4352 247.425 37.5864 252.39C38.1463 253.272 39.1727 253.516 40 254M112 254C111.342 252.402 110.44 250.774 110.576 248.975C110.803 245.991 113.403 243.377 115 241C110.688 243.06 106.435 247.425 109.586 252.39C110.146 253.272 111.173 253.516 112 254M184 254C183.342 252.402 182.44 250.774 182.576 248.975C182.803 245.991 185.403 243.377 187 241C182.688 243.06 178.435 247.425 181.586 252.39C182.146 253.272 183.173 253.516 184 254z"/>
<path style="fill:#515151; stroke:#515151;" d="M255 243C252.257 247.175 251.144 251.161 256 254C256 250.3 256.44 246.432 255 243z"/>
<path style="fill:#474747; stroke:#474747;" d="M59 249L60 249C61.6579 247.078 62.7414 246.105 65 245C61.5126 243.87 60.1556 245.852 59 249M131 249L132 249C133.658 247.078 134.741 246.105 137 245C133.513 243.87 132.156 245.852 131 249M203 249L204 249C205.658 247.078 206.741 246.105 209 245C205.513 243.87 204.156 245.852 203 249z"/>
<path style="fill:#393939; stroke:#393939;" d="M65 245C66.2228 246.195 66.42 246.316 68 247C66.7772 245.805 66.58 245.684 65 245z"/>
<path style="fill:#1f1f1f; stroke:#1f1f1f;" d="M71 246C71.5307 248.69 72.1158 250.02 74 252L74 253C72.3648 253.545 72.5451 253.365 72 255C76.2117 253.732 78.7883 253.732 83 255C83.1306 253.359 83.3693 252.544 84 251C81.812 251.269 79.2176 251.996 77.0525 251.308C74.4703 250.487 72.8265 247.839 71 246M143 246C143.531 248.69 144.116 250.02 146 252L146 253C144.365 253.545 144.545 253.365 144 255C148.212 253.732 150.788 253.732 155 255C155.131 253.359 155.369 252.544 156 251C153.812 251.269 151.218 251.996 149.052 251.308C146.47 250.487 144.827 247.839 143 246M215 246C215.531 248.69 216.116 250.02 218 252L218 253C216.365 253.545 216.545 253.365 216 255C220.212 253.732 222.788 253.732 227 255C227.131 253.359 227.369 252.544 228 251C225.812 251.269 223.218 251.996 221.052 251.308C218.47 250.487 216.827 247.839 215 246M0 247C0.30258 249.294 0.578496 250.212 2 252L2 253C0.364838 253.545 0.545054 253.365 0 255C4.21168 253.732 6.78832 253.732 11 255C11.1306 253.359 11.3693 252.544 12 251C6.39649 251.688 3.78761 251.416 0 247z"/>
<path style="fill:#151515; stroke:#151515;" d="M68 247C68.6836 248.58 68.8048 248.777 70 250C69.3164 248.42 69.1952 248.223 68 247z"/>
<path style="fill:#252525; stroke:#252525;" d="M58 249C58.2297 252.198 58.7038 253.766 61 256C60.1982 253.518 59.3334 251.237 58 249M130 249C130.23 252.198 130.704 253.766 133 256C132.198 253.518 131.333 251.237 130 249M202 249C202.23 252.198 202.704 253.766 205 256C204.198 253.518 203.333 251.237 202 249z"/>
<path style="fill:#010101; stroke:#010101;" d="M18 251C22.2844 255.374 27.1298 253.728 32 251C29.1018 250.515 26.9146 252.213 24.0046 252.351C21.9571 252.448 19.9244 251.583 18 251M90 251C94.2844 255.374 99.1298 253.728 104 251C101.102 250.515 98.9146 252.213 96.0046 252.351C93.9571 252.448 91.9244 251.583 90 251M162 251C166.284 255.374 171.13 253.728 176 251C173.102 250.515 170.915 252.213 168.005 252.351C165.957 252.448 163.924 251.583 162 251M234 251C238.284 255.374 243.13 253.728 248 251C245.102 250.515 242.915 252.213 240.005 252.351C237.957 252.448 235.924 251.583 234 251z"/>
<path style="fill:#ffffff; stroke:#ffffff;" d="M0 251L0 254L2 253L2 252L0 251z"/>
<path style="fill:#010101; stroke:#010101;" d="M40 254L40 255C44.8531 256.435 49.9643 256 55 256L55 255C52.533 255 50.9884 255.193 49 254L50 253C46.4105 254.091 43.7326 254.585 40 254z"/>
<path style="fill:#030303; stroke:#030303;" d="M68 253C66.8137 254.186 66.4721 254.584 66 256C67.9943 255.153 68.699 254.993 68 253z"/>
<path style="fill:#010101; stroke:#010101;" d="M112 254L112 255C116.853 256.435 121.964 256 127 256L127 255C124.533 255 122.988 255.193 121 254L122 253C118.41 254.091 115.733 254.585 112 254z"/>
<path style="fill:#151515; stroke:#151515;" d="M140 253C138.814 254.186 138.472 254.584 138 256C139.994 255.153 140.699 254.993 140 253z"/>
<path style="fill:#010101; stroke:#010101;" d="M184 254L184 255C188.853 256.435 193.964 256 199 256L199 255C196.533 255 194.988 255.193 193 254L194 253C190.41 254.091 187.733 254.585 184 254z"/>
<path style="fill:#151515; stroke:#151515;" d="M212 253C210.814 254.186 210.472 254.584 210 256C211.994 255.153 212.699 254.993 212 253z"/>
<path style="fill:#050505; stroke:#050505;" d="M26 255L26 256L29 256C27.7516 255.315 27.4516 255.251 26 255M98 255L98 256L101 256C99.7516 255.315 99.4516 255.251 98 255M170 255L170 256L173 256C171.752 255.315 171.452 255.251 170 255M242 255L242 256L245 256C243.752 255.315 243.452 255.251 242 255z"/>
</svg>
