<?xml version="1.0" encoding="iso-8859-1"?>
<!-- Uploaded to: SVG Repo, www.svgrepo.com, Generator: SVG Repo Mixer Tools -->
<svg fill="#000000" height="800px" width="800px" version="1.1" id="Layer_1" xmlns="http://www.w3.org/2000/svg" xmlns:xlink="http://www.w3.org/1999/xlink" 
	 viewBox="0 0 512 512" xml:space="preserve">
<g>
	<g>
		<path d="M490.667,448H480V10.667C480,4.8,475.2,0,469.333,0H42.667C36.8,0,32,4.8,32,10.667V448H21.333
			c-5.867,0-10.667,4.8-10.667,10.667v42.667c0,5.867,4.8,10.667,10.667,10.667h469.333c5.867,0,10.667-4.8,10.667-10.667v-42.667
			C501.333,452.8,496.533,448,490.667,448z M53.333,21.333h405.333V448h-21.333V53.333c0-5.867-4.8-10.667-10.667-10.667H85.333
			c-5.867,0-10.667,4.8-10.667,10.667V448H53.333V21.333z M266.667,245.333V64H416v181.333H266.667z M416,266.667V448H266.667
			V266.667H416z M96,245.333V64h149.333v181.333H96z M245.333,266.667V448H96V266.667H245.333z M480,490.667H32v-21.333h448V490.667
			z"/>
	</g>
</g>
</svg>