<?xml version="1.0" ?><!-- Uploaded to: SVG Repo, www.svgrepo.com, Generator: SVG Repo Mixer Tools -->
<svg fill="#000000" width="800px" height="800px" viewBox="0 0 100 100" data-name="Layer 1" id="Layer_1" xmlns="http://www.w3.org/2000/svg"><title/><path d="M56.37,75a8.2,8.2,0,0,0,8.19,8.19H69a1.82,1.82,0,1,0,0-3.64H64.56a4.55,4.55,0,0,1,0-9.1,1.82,1.82,0,0,0,0-3.64,4.55,4.55,0,1,1,0-9.1H85.5a4.55,4.55,0,0,1,0,9.1,1.82,1.82,0,1,0,0,3.64,4.55,4.55,0,0,1,0,9.1H82a1.82,1.82,0,0,0,0,3.64H85.5a8.19,8.19,0,0,0,5.14-14.56A8.19,8.19,0,0,0,85.5,54.1H64.56a8.19,8.19,0,0,0-5.14,14.56A8.17,8.17,0,0,0,56.37,75Z"/><path d="M77.31,91.41V72.3a1.83,1.83,0,0,0-3.65,0V91.41a1.83,1.83,0,0,0,3.65,0Z"/><path d="M29.07,41.35V91.41a1.82,1.82,0,0,0,3.64,0V41.35a1.82,1.82,0,1,0-3.64,0Z"/><path d="M23.58,77.76a1.82,1.82,0,1,0,0-3.64h-6.8A6.82,6.82,0,0,1,15,60.71a1.82,1.82,0,0,0,0-3.52A6.81,6.81,0,0,1,15,44a1.82,1.82,0,0,0,0-3.51,6.81,6.81,0,0,1,0-13.17,1.82,1.82,0,0,0,0-3.52,6.82,6.82,0,0,1,1.77-13.41H45.45a6.82,6.82,0,0,1,1.77,13.41,1.82,1.82,0,0,0,0,3.52,6.81,6.81,0,0,1,0,13.17,1.82,1.82,0,0,0,0,3.51,6.81,6.81,0,0,1,0,13.17,1.82,1.82,0,0,0,0,3.52,6.82,6.82,0,0,1-1.77,13.41H38a1.82,1.82,0,1,0,0,3.64h7.41A10.46,10.46,0,0,0,51.76,59a10.45,10.45,0,0,0,0-16.69,10.44,10.44,0,0,0,0-16.68A10.46,10.46,0,0,0,45.45,6.77H16.78a10.46,10.46,0,0,0-6.31,18.81,10.44,10.44,0,0,0,0,16.68,10.45,10.45,0,0,0,0,16.69,10.46,10.46,0,0,0,6.31,18.81Z"/></svg>