<?xml version="1.0" encoding="iso-8859-1"?>
<!-- Uploaded to: SVG Repo, www.svgrepo.com, Generator: SVG Repo Mixer Tools -->
<svg fill="#000000" height="800px" width="800px" version="1.1" id="Layer_1" xmlns="http://www.w3.org/2000/svg" xmlns:xlink="http://www.w3.org/1999/xlink" 
	 viewBox="0 0 512 512" xml:space="preserve">
<g>
	<g>
		<g>
			<path d="M508.489,48.861c-2.213-1.67-5.078-2.201-7.741-1.442L338.391,93.808L176.035,47.419c-1.585-0.453-3.265-0.453-4.85,0
				L6.403,94.5C2.613,95.584,0,99.047,0,102.989v353.103c0,2.769,1.301,5.379,3.511,7.047c1.55,1.169,3.42,1.781,5.318,1.781
				c0.811,0,1.627-0.112,2.425-0.339l162.356-46.388l162.356,46.388c1.585,0.453,3.265,0.453,4.85,0l164.782-47.08
				c3.79-1.084,6.403-4.547,6.403-8.489V55.908C512,53.137,510.699,50.529,508.489,48.861z M164.782,273.268
				c-3.205,2.046-4.834,6.018-3.736,9.862c0.614,2.15,1.989,3.863,3.736,4.982v43.621l-88.276,25.221v-40.49l10.573-3.02
				c4.688-1.338,7.402-6.225,6.063-10.912c-1.339-4.688-6.229-7.405-10.913-6.062l-5.723,1.633v-69.474
				c20.122-4.1,35.31-21.935,35.31-43.249c0-4.876-3.952-8.828-8.828-8.828s-8.828,3.951-8.828,8.828
				c0,11.508-7.381,21.319-17.655,24.964v-46.89l88.276-25.222V273.268z M164.782,119.87l-99.529,28.435
				c-3.79,1.084-6.402,4.547-6.402,8.489v152.802v0.005v59.055c0,2.771,1.299,5.379,3.511,7.047
				c2.212,1.668,5.076,2.205,7.741,1.441l94.679-27.05v52.257L17.655,444.389V109.647l147.126-42.036V119.87z M329.563,444.388
				l-147.126-42.037v-52.258l147.126,42.036V444.388z M329.563,238.977v0.005v134.788l-147.126-42.036V138.231l64.736,18.496v11
				c0,4.876,3.952,8.828,8.828,8.828s8.828-3.951,8.828-8.828v-5.956l64.736,18.496V238.977z M329.563,161.907l-147.126-42.036
				V67.612l147.126,42.037V161.907z M347.218,245.844l10.573-3.02c4.688-1.338,7.402-6.225,6.063-10.912
				c-1.339-4.687-6.228-7.409-10.913-6.062l-5.723,1.633v-47.216l88.276-25.221v47.602c-3.205,2.046-4.834,6.018-3.736,9.862
				c0.614,2.15,1.989,3.863,3.736,4.982v65.88c-20.122,4.1-35.31,21.935-35.31,43.249c0,4.876,3.952,8.828,8.828,8.828
				s8.828-3.951,8.828-8.828c0-11.508,7.38-21.319,17.655-24.964v46.89l-88.276,25.222V245.844z M494.345,402.353l-147.126,42.036
				V392.13l99.528-28.435c3.79-1.084,6.403-4.547,6.403-8.489V143.344c0-2.771-1.301-5.379-3.511-7.047
				c-2.212-1.669-5.079-2.207-7.741-1.441l-94.679,27.05v-52.258l147.126-42.037V402.353z"/>
			<path d="M414.784,217.361c-1.339-4.687-6.228-7.406-10.913-6.062l-16.976,4.85c-4.688,1.339-7.402,6.225-6.063,10.912
				c1.108,3.876,4.641,6.404,8.483,6.404c0.803,0,1.62-0.111,2.431-0.343l16.976-4.85
				C413.409,226.934,416.123,222.048,414.784,217.361z"/>
			<path d="M110.118,297.68c1.108,3.877,4.642,6.404,8.483,6.404c0.803,0,1.62-0.111,2.429-0.343l16.976-4.85
				c4.688-1.339,7.402-6.225,6.063-10.912c-1.338-4.686-6.224-7.407-10.912-6.062l-16.976,4.85
				C111.492,288.108,108.778,292.993,110.118,297.68z"/>
			<path d="M223.971,298.971c-1.339,4.687,1.375,9.574,6.063,10.913l47.08,13.453c0.81,0.232,1.627,0.342,2.429,0.342
				c3.841,0,7.375-2.528,8.484-6.405c1.341-4.687-1.375-9.573-6.063-10.912l-47.08-13.453
				C230.202,291.567,225.312,294.284,223.971,298.971z"/>
			<path d="M256,229.52c4.875,0,8.828-3.951,8.828-8.828v-17.655c0-4.876-3.952-8.828-8.828-8.828s-8.828,3.951-8.828,8.828v17.655
				C247.172,225.568,251.125,229.52,256,229.52z"/>
			<path d="M256,282.485c4.875,0,8.828-3.951,8.828-8.828v-17.655c0-4.876-3.952-8.828-8.828-8.828s-8.828,3.951-8.828,8.828v17.655
				C247.172,278.534,251.125,282.485,256,282.485z"/>
		</g>
	</g>
</g>
</svg>