<?xml version="1.0" ?>
<!-- Uploaded to: SVG Repo, www.svgrepo.com, Generator: SVG Repo Mixer Tools -->
<svg width="800px" height="800px" viewBox="0 0 24 24" version="1.1" xmlns="http://www.w3.org/2000/svg" xmlns:xlink="http://www.w3.org/1999/xlink">
<title/>
<g fill="none" fill-rule="evenodd" id="页面-1" stroke="none" stroke-width="1">
<g id="导航图标" transform="translate(-252.000000, -272.000000)">
<g id="编组" transform="translate(252.000000, 272.000000)">
<rect fill="#FFFFFF" fill-opacity="0.01" fill-rule="nonzero" height="24" id="矩形" width="24" x="0" y="0"/>
<path d="M4.92893,16.3787 C3.11929,16.9216 2,17.6716 2,18.5 C2,20.15685 6.47715,21.5 12,21.5 L12,21.5 C17.52285,21.5 22,20.15685 22,18.5 C22,17.6716 20.8807,16.9216 19.07105,16.3787" id="路径" stroke="#212121" stroke-linecap="round" stroke-linejoin="round" stroke-width="1.5"/>
<path d="M12,17.5 C12,17.5 18.5,13.252 18.5,8.3409 C18.5,4.83892 15.58985,2 12,2 C8.41015,2 5.5,4.83892 5.5,8.3409 C5.5,13.252 12,17.5 12,17.5 Z" id="路径" stroke="#212121" stroke-linejoin="round" stroke-width="1.5"/>
<path d="M12,11 C13.3807,11 14.5,9.8807 14.5,8.5 C14.5,7.1193 13.3807,6 12,6 C10.6193,6 9.5,7.1193 9.5,8.5 C9.5,9.8807 10.6193,11 12,11 Z" id="路径" stroke="#212121" stroke-linejoin="round" stroke-width="1.5"/>
</g>
</g>
</g>
</svg>